<?xml version="1.0" encoding="utf-8"?>
<!-- Generator: Adobe Illustrator 18.0.0, SVG Export Plug-In . SVG Version: 6.00 Build 0)  -->
<!DOCTYPE svg PUBLIC "-//W3C//DTD SVG 1.1//EN" "http://www.w3.org/Graphics/SVG/1.1/DTD/svg11.dtd">
<svg version="1.1" id="Layer_1" xmlns="http://www.w3.org/2000/svg" xmlns:xlink="http://www.w3.org/1999/xlink" x="0px" y="0px"
	 width="611.9px" height="719.9px" viewBox="759.9 144.5 611.9 719.9" enable-background="new 759.9 144.5 611.9 719.9"
	 xml:space="preserve">
<path fill="#595959" d="M1214.6,318.7c-62.2-4.7-115.1,32.6-143.1,32.6c-29.5,0-76.2-32.6-124.4-31.1
	c-63.8,1.6-122.9,35.8-155.5,90.2c-66.9,110.5-17.1,273.7,48.2,362.3c31.1,43.5,70,93.3,118.2,91.7c48.3-1.6,65.3-29.5,122.9-29.5
	c57.6,0,73.1,29.5,124.4,28c51.4-1.6,83.9-45.1,115.1-88.5c35.8-51.4,51.4-99.5,51.4-102.7c-1.6,0-99.5-37.4-101-146.1
	c-1.6-91.7,77.7-135.2,80.9-136.8C1307.8,326.3,1239.4,320.1,1214.6,318.7"/>
<path fill="#595959" d="M1177.2,259.6c26.4-31.1,43.5-73.1,38.9-115.1c-37.4,1.6-83.9,24.9-110.5,54.5
	c-24.9,26.4-45.1,70-40.5,111.9C1107.2,313.9,1150.8,289.2,1177.2,259.6"/>
</svg>
