<?xml version="1.0" encoding="utf-8"?>
<!-- Generator: Adobe Illustrator 18.0.0, SVG Export Plug-In . SVG Version: 6.00 Build 0)  -->
<!DOCTYPE svg PUBLIC "-//W3C//DTD SVG 1.1 Tiny//EN" "http://www.w3.org/Graphics/SVG/1.1/DTD/svg11-tiny.dtd">
<svg version="1.1" baseProfile="tiny" id="Layer_1" xmlns="http://www.w3.org/2000/svg" xmlns:xlink="http://www.w3.org/1999/xlink"
	 x="0px" y="0px" width="16.4px" height="12px" viewBox="0 0 16.4 12" xml:space="preserve">
<g>
	<path fill="#59595A" d="M14.6,4.7c0,0.1,0.1,0.2,0.1,0.2c0,0,0,0,0,0C14.7,4.8,14.6,4.7,14.6,4.7c0,0,0,0.1,0,0.1s0,0.1,0,0.1
		c0,0,0,0.1,0,0.1c0,0,0,0.1,0,0.1c0.1,0.3,0.1,0.7,0.1,1.1c0,0.4-0.1,0.7-0.2,1s-0.2,0.7-0.4,1c-0.2,0.3-0.4,0.6-0.6,0.9
		c-0.2,0.3-0.5,0.5-0.8,0.7c-0.3,0.2-0.6,0.4-0.9,0.5c-0.3,0.1-0.6,0.3-1,0.3c-0.3,0.1-0.7,0.1-1,0.1l-4.4,0c0,0,0,0,0,0s0,0,0,0
		s0,0,0,0s0,0,0,0v0c-0.5,0-0.9-0.1-1.3-0.2C3.8,10.4,3.4,10.2,3,9.9c-0.3-0.3-0.6-0.6-0.9-1C1.9,8.5,1.8,8,1.7,7.6
		c0-0.3-0.1-0.6,0-0.9c0-0.3,0.1-0.6,0.2-0.9C1.9,5.4,2,5.2,2.2,4.9c0.2-0.3,0.3-0.5,0.6-0.7C3,3.9,3.2,3.7,3.5,3.6
		c0.3-0.2,0.6-0.3,0.9-0.4S5,3,5.3,3s0.6,0,1,0.1c0.1-0.1,0.2-0.2,0.3-0.3c0.1-0.1,0.2-0.2,0.3-0.3C6.9,2.3,7,2.2,7.1,2.2
		S7.3,2,7.4,1.9c0.3-0.2,0.6-0.3,1-0.5s0.7-0.2,1-0.2c0.3,0,0.7,0,1.1,0c0.4,0,0.7,0.1,1,0.2c0.3,0.1,0.6,0.2,0.9,0.4
		C12.7,2,13,2.2,13.2,2.5c0.2,0.2,0.5,0.5,0.7,0.8s0.4,0.6,0.5,0.9c0,0,0,0,0,0c0,0,0,0,0,0s0,0,0,0c0,0,0,0,0,0c0,0,0,0.1,0,0.1
		s0,0.1,0,0.1c0,0,0,0.1,0,0.1s0,0.1,0,0.1c0,0,0,0,0,0c0,0,0,0,0,0c0,0,0,0,0,0c0,0,0,0,0,0c0,0,0,0.1,0.1,0.1s0,0.1,0.1,0.1
		c0,0,0,0.1,0,0.1S14.6,4.6,14.6,4.7L14.6,4.7z M7.9,4.7C7.6,4.4,7.3,4.2,6.9,4C6.5,3.8,6.1,3.7,5.7,3.7s-0.8,0-1.2,0.2
		C4.1,4,3.7,4.2,3.4,4.5C3.2,4.7,3,5,2.8,5.3C2.6,5.5,2.5,5.8,2.4,6.1C2.4,6.4,2.3,6.8,2.4,7.1S2.4,7.7,2.6,8C2.7,8.3,2.8,8.6,3,8.8
		s0.4,0.5,0.7,0.7s0.6,0.3,0.9,0.4c0.3,0.1,0.6,0.1,1,0.2l1.9,0C7.4,10,7.3,10,7.2,9.9S7.1,9.8,7,9.8C6.9,9.7,6.9,9.6,6.8,9.6
		C6.7,9.5,6.7,9.4,6.6,9.4l-1,0c-0.2,0-0.4,0-0.6-0.1S4.6,9.2,4.4,9.1S4.1,8.9,3.9,8.8C3.8,8.7,3.7,8.5,3.6,8.4
		C3.4,8.1,3.2,7.8,3.1,7.5C3.1,7.2,3.1,6.9,3.1,6.6c0-0.3,0.1-0.6,0.3-0.9C3.5,5.4,3.7,5.2,4,5c0.3-0.2,0.5-0.3,0.8-0.4
		s0.6-0.1,0.9-0.1s0.6,0.1,0.9,0.2S7.2,5,7.4,5.2l1.4,1.6C8.9,6.9,9,6.9,9.1,6.9s0.2,0,0.2-0.1s0.1-0.1,0.1-0.2c0-0.1,0-0.2-0.1-0.3
		L7.9,4.7z M8.4,9.8c0.1,0,0.2,0.1,0.1,0.1S8.4,9.8,8.4,9.8c-0.1,0-0.1-0.1-0.1-0.1S8.3,9.7,8.4,9.8c0.2,0.1,0.4,0.1,0.6,0.2
		c0.2,0,0.4,0.1,0.6,0.1c0.2,0,0.4,0,0.6,0c0.2,0,0.4,0,0.6-0.1c0.3-0.1,0.6-0.2,0.9-0.3c0.3-0.1,0.6-0.3,0.8-0.5
		c0.3-0.2,0.5-0.4,0.7-0.7c0.2-0.2,0.4-0.5,0.5-0.8c0.1-0.3,0.3-0.6,0.3-0.9C14,6.6,14.1,6.3,14.1,6c0-0.3,0-0.6-0.1-0.9
		c-0.1-0.3-0.2-0.6-0.3-0.9c-0.1-0.3-0.3-0.6-0.5-0.8s-0.4-0.5-0.7-0.7c-0.3-0.2-0.5-0.4-0.8-0.5C11.3,2.1,11,2,10.7,2
		c-0.3-0.1-0.7-0.1-1,0S9,2,8.7,2.1C8.4,2.2,8.1,2.4,7.8,2.6C7.5,2.8,7.2,3,7,3.2c0.1,0,0.1,0,0.2,0.1c0.1,0,0.1,0.1,0.2,0.1
		c0.1,0,0.1,0.1,0.2,0.1s0.1,0.1,0.2,0.1c0,0,0.1-0.1,0.1-0.1c0,0,0.1-0.1,0.1-0.1c0,0,0.1-0.1,0.1-0.1c0,0,0.1-0.1,0.1-0.1
		C8.4,3,8.7,2.9,9,2.8c0.3-0.1,0.6-0.1,1-0.1c0.3,0,0.6,0,1,0.1c0.3,0.1,0.6,0.2,0.9,0.4c0.3,0.2,0.5,0.4,0.7,0.6s0.4,0.5,0.5,0.8
		c0.1,0.3,0.2,0.6,0.3,0.9s0.1,0.6,0,1c0,0.3-0.1,0.6-0.3,0.9c-0.1,0.3-0.3,0.6-0.5,0.8c-0.2,0.2-0.4,0.4-0.7,0.6
		C11.6,9,11.4,9.1,11,9.2c-0.3,0.1-0.6,0.2-0.9,0.2c-0.3,0-0.6,0-0.9-0.1C8.9,9.2,8.6,9.1,8.3,8.9C8.1,8.8,7.8,8.6,7.6,8.4L5.9,6.6
		C5.8,6.5,5.7,6.5,5.6,6.5s-0.2,0-0.2,0.1S5.3,6.8,5.3,6.9s0,0.2,0.1,0.3l1.7,1.7C7.2,8.9,7.3,9,7.4,9.1c0.1,0.1,0.2,0.2,0.3,0.2
		S7.9,9.5,8,9.6C8.1,9.6,8.3,9.7,8.4,9.8z"/>
</g>
</svg>
