<svg id="Layer_1" data-name="Layer 1" xmlns="http://www.w3.org/2000/svg" viewBox="0 0 128 128"><defs><style>.cls-1{fill:#595959;}</style></defs><title>i-love-apple</title><path class="cls-1" d="M90.45,31C79.39,30.14,70,36.77,65,36.77c-5.24,0-13.55-5.8-22.12-5.53a33.27,33.27,0,0,0-27.65,16c-11.89,19.65-3,48.66,8.57,64.41,5.53,7.73,12.45,16.59,21,16.3s11.61-5.24,21.85-5.24,13,5.24,22.12,5,14.92-8,20.46-15.73c6.37-9.14,9.14-17.69,9.14-18.26-.28,0-17.69-6.65-18-26-.28-16.3,13.81-24,14.38-24.32C107,32.32,94.86,31.22,90.45,31"/><path class="cls-1" d="M83.8,20.46c4.69-5.53,7.73-13,6.92-20.46C84.07.28,75.8,4.43,71.07,9.69c-4.43,4.69-8,12.45-7.2,19.9,7.49.53,15.24-3.86,19.93-9.12"/></svg>