<svg id="Layer_1" data-name="Layer 1" xmlns="http://www.w3.org/2000/svg" viewBox="0 0 128 128"><defs><style>.cls-1{fill:#595959;}.cls-2{fill:#262626;}</style></defs><title>i-love-javascript</title><rect class="cls-1" width="128" height="128"/><path class="cls-2" d="M33.61,106.85,43.4,101c1.86,3.35,3.6,6.19,7.72,6.19,4,0,6.44-1.55,6.44-7.57V58.73h12v41c0,12.47-7.3,18.11-17.92,18.11-9.62,0-15.21-5-18-11"/><path class="cls-2" d="M76.11,105.56l9.79-5.67c2.59,4.2,5.9,7.3,11.86,7.3,5,0,8.14-2.49,8.14-5.9,0-4.12-3.28-5.58-8.74-8l-3-1.3c-8.66-3.68-14.41-8.32-14.41-18.11,0-9,6.88-15.87,17.59-15.87,7.63,0,13.13,2.68,17.07,9.62l-9.39,6c-2-3.68-4.29-5.15-7.72-5.15s-5.75,2.24-5.75,5.15c0,3.6,2.24,5.06,7.38,7.3l3,1.3c10.23,4.39,15.94,8.83,15.94,18.87,0,10.81-8.49,16.75-19.91,16.75-11.13,0-18.32-5.38-21.84-12.32"/></svg>