<?xml version="1.0" encoding="utf-8"?>
<!-- Generator: Adobe Illustrator 18.0.0, SVG Export Plug-In . SVG Version: 6.00 Build 0)  -->
<!DOCTYPE svg PUBLIC "-//W3C//DTD SVG 1.1//EN" "http://www.w3.org/Graphics/SVG/1.1/DTD/svg11.dtd">
<svg version="1.1" id="Layer_1" xmlns="http://www.w3.org/2000/svg" xmlns:xlink="http://www.w3.org/1999/xlink" x="0px" y="0px"
	 viewBox="803.9 255.2 612 694" enable-background="new 803.9 255.2 612 694" xml:space="preserve">
<title>HTML5 Logo</title>
<polygon fill="#4D4D4D" points="859.6,879.8 803.9,255.2 1415.9,255.2 1360.2,879.8 1109.6,949.2 "/>
<polygon fill="#545454" points="1109.9,896 1312.4,840 1360.1,306.2 1109.9,306.2 "/>
<polygon fill="#666666" points="1109.9,537.9 1008.5,537.9 1001.5,459.5 1109.9,459.5 1109.9,382.9 1109.7,382.9 917.8,382.9 
	919.6,403.4 938.5,614.5 1109.9,614.5 "/>
<polygon fill="#666666" points="1109.9,736.9 1109.6,736.9 1024.3,713.9 1018.8,652.9 977.3,652.9 941.8,652.9 952.6,773 
	1109.6,816.8 1109.9,816.7 "/>
<polygon fill="#737373" points="1109.7,537.9 1109.7,614.5 1203.9,614.5 1195.1,713.9 1109.7,736.9 1109.7,816.7 1266.7,773 
	1267.9,760.2 1285.9,558.5 1287.8,537.9 1267.1,537.9 "/>
<polygon fill="#737373" points="1109.7,382.9 1109.7,430.4 1109.7,459.2 1109.7,459.5 1294.4,459.5 1294.4,459.5 1294.6,459.5 
	1296.3,442.2 1299.7,403.4 1301.6,382.9 "/>
</svg>
