<svg id="Layer_1" data-name="Layer 1" xmlns="http://www.w3.org/2000/svg" viewBox="0 0 128 128"><defs><style>.cls-1{fill:#595959;}</style></defs><title>i-love-adobecc</title><path class="cls-1" d="M128,61.9v4.21c0,.23-.09.45-.12.68-.22,1.83-.36,3.68-.66,5.5A45,45,0,0,1,121,88.78a46.9,46.9,0,0,1-19.44,17.62,45.48,45.48,0,0,1-15,4.43L83,111.2h-45a5.63,5.63,0,0,0-.68-.12,38.35,38.35,0,0,1-13.05-3.14A39.82,39.82,0,0,1,4.11,88.72,37.8,37.8,0,0,1,.38,76.29Q.19,74.71,0,73.14V69a5.46,5.46,0,0,0,.12-.68A37.67,37.67,0,0,1,2.58,57,39.8,39.8,0,0,1,22.52,35a39.06,39.06,0,0,1,15.61-4,43.37,43.37,0,0,1,8,.37,1,1,0,0,0,.76-.25A47.42,47.42,0,0,1,60,21.63a45.87,45.87,0,0,1,15.07-4.44c1.24-.14,2.49-.26,3.73-.39h3.83l.75.11c1.9.22,3.81.36,5.69.68a45.1,45.1,0,0,1,16.39,6.22,46.9,46.9,0,0,1,17.7,19.48,45.37,45.37,0,0,1,4.43,15c.14,1.2.25,2.4.38,3.6M56.43,34.63c.08.1.1.15.13.16a51.21,51.21,0,0,1,7.52,4.55.79.79,0,0,0,.7-.05,29.54,29.54,0,0,1,39.29,6.76,27.94,27.94,0,0,1,5.79,22.77,29.19,29.19,0,0,1-7.1,15c-7,7.76-15.85,11-26.22,9.61a27.69,27.69,0,0,1-16.46-8.2c-5.86-5.92-11.75-11.79-17.62-17.69A4.75,4.75,0,0,0,39.68,66a4.42,4.42,0,0,0-4.61,2.51,4.08,4.08,0,0,0,1,5c6.55,6.43,13,12.91,19.58,19.35a31.61,31.61,0,0,0,3.59,3.06,34.36,34.36,0,0,0,16,6.16,38.59,38.59,0,0,0,13.63-.54,38.36,38.36,0,0,0,29.39-44.72,36.74,36.74,0,0,0-8.64-17.71c-8.62-9.68-19.48-14-32.39-13a36,36,0,0,0-14.09,4.14,37.17,37.17,0,0,0-6.69,4.46m-3.16,67.61-.53-.5c-2.68-2.53-5.37-5-8-7.6A2.17,2.17,0,0,0,43,93.42a32.45,32.45,0,0,1-8-.52A22.39,22.39,0,0,1,43.9,49,21.7,21.7,0,0,1,56,55.31c4.1,4.24,8.33,8.35,12.47,12.54a3.73,3.73,0,0,0,3.34,1.2,4.19,4.19,0,0,0,3.65-2.7,4,4,0,0,0-.93-4.43C70.21,57.52,66,53,61.43,48.78c-8.78-8.19-19.14-10.63-30.59-7.14a31.05,31.05,0,0,0,9.45,60.64H52.55l.72,0"/></svg>