<svg id="Layer_1" data-name="Layer 1" xmlns="http://www.w3.org/2000/svg" viewBox="0 0 128 128"><defs><style>.cls-1{fill:#595959;}</style></defs><title>i-love-git</title><path class="cls-1" d="M125.63,58.36l-56-56A8.32,8.32,0,0,0,58,2.4L46.39,14,61.15,28.73a9.62,9.62,0,0,1,10,2.36,9.89,9.89,0,0,1,2.36,10.16l14.2,14.2a9.89,9.89,0,0,1,10.16,2.36,9.85,9.85,0,1,1-16,3.2L68.66,47.78V82.56a11.76,11.76,0,0,1,2.64,1.8,9.73,9.73,0,0,1,0,13.93,10,10,0,0,1-13.93,0,9.73,9.73,0,0,1,0-13.93,9.09,9.09,0,0,1,3.2-2.09V47.09A11.4,11.4,0,0,1,57.37,45a9.69,9.69,0,0,1-2.09-10.73L40.66,19.8,2.41,58.09a8.32,8.32,0,0,0,0,11.69L58.23,125.6a8.32,8.32,0,0,0,11.69,0l55.55-55.55A8.21,8.21,0,0,0,125.63,58.36Z"/></svg>