<svg id="Layer_1" data-name="Layer 1" xmlns="http://www.w3.org/2000/svg" viewBox="0 0 128 128"><defs><style>.cls-1{fill:#7a7a7a;}.cls-2{fill:#727272;}.cls-3{fill:#323233;}.cls-4{fill:#4c4c4c;}.cls-5{fill:#333;}</style></defs><title>i-love-sublime</title><path class="cls-1" d="M111.36,17.78a14.24,14.24,0,0,1,4.16.64A11.62,11.62,0,0,1,119,20.19a9.62,9.62,0,0,1,2.47,2.62A7.19,7.19,0,0,1,122.52,26L128,107.84a8.77,8.77,0,0,1-3,7.13,10.61,10.61,0,0,1-3.63,2.17,13.27,13.27,0,0,1-4.56.8H11.18a13.27,13.27,0,0,1-4.56-.8A11.62,11.62,0,0,1,3,115a9.33,9.33,0,0,1-2.31-3.21A8.76,8.76,0,0,1,0,107.84L5.5,26.08a7,7,0,0,1,1.06-3.23A9.23,9.23,0,0,1,9,20.22a12.63,12.63,0,0,1,3.47-1.78,13.41,13.41,0,0,1,4.16-.64l94.7,0Z"/><path class="cls-2" d="M126.71,113a9.35,9.35,0,0,1-2.41,2.6,11.94,11.94,0,0,1-3.37,1.75,13.4,13.4,0,0,1-4.06.64H11.18a12.63,12.63,0,0,1-4.06-.64,11.29,11.29,0,0,1-3.37-1.75A9.73,9.73,0,0,1,1.34,113a8.7,8.7,0,0,1-1.22-3.23l.66,4.29A8.7,8.7,0,0,0,2,117.3a10.07,10.07,0,0,0,2.39,2.6,11.08,11.08,0,0,0,3.34,1.72,13.23,13.23,0,0,0,4,.64H116.29a12.46,12.46,0,0,0,4-.64,11.08,11.08,0,0,0,3.34-1.72,10.07,10.07,0,0,0,2.39-2.6,8.7,8.7,0,0,0,1.22-3.23l.66-4.29A8.7,8.7,0,0,1,126.71,113Z"/><path class="cls-3" d="M106.64,20.8a13.93,13.93,0,0,1,4.14.64,12.05,12.05,0,0,1,3.45,1.75,8.94,8.94,0,0,1,2.41,2.6,7,7,0,0,1,1,3.21l4.56,72.19a8.43,8.43,0,0,1-.66,3.82,9.05,9.05,0,0,1-2.31,3.13,11,11,0,0,1-3.58,2.12,13.08,13.08,0,0,1-4.51.77H17.3a13.08,13.08,0,0,1-4.51-.77,11,11,0,0,1-3.58-2.12A9.4,9.4,0,0,1,6.91,105a8,8,0,0,1-.66-3.82L10.81,29a7,7,0,0,1,1-3.21,9.32,9.32,0,0,1,2.41-2.6,12.41,12.41,0,0,1,3.45-1.75,13.93,13.93,0,0,1,4.14-.64h84.81Z"/><path class="cls-4" d="M108.34,5.74a11.92,11.92,0,0,1,3.69.58,10.5,10.5,0,0,1,3.08,1.56,8.22,8.22,0,0,1,2.17,2.33,6.52,6.52,0,0,1,.93,2.86l4.67,75.42a7.09,7.09,0,0,1-.61,3.42,8.15,8.15,0,0,1-2,2.81A10.38,10.38,0,0,1,117,96.65a11.54,11.54,0,0,1-4,.69H15.5a11.54,11.54,0,0,1-4-.69,9.79,9.79,0,0,1-3.18-1.91,7.82,7.82,0,0,1-2-2.81,7.42,7.42,0,0,1-.61-3.42L10.3,13.09a6.1,6.1,0,0,1,.93-2.86A8.22,8.22,0,0,1,13.4,7.89a10.85,10.85,0,0,1,3.08-1.56,11.92,11.92,0,0,1,3.69-.58Z"/><path class="cls-5" d="M121.75,92.88a8.94,8.94,0,0,1-2.15,2.33,10.39,10.39,0,0,1-3,1.56,11.46,11.46,0,0,1-3.63.56H15.5a12.54,12.54,0,0,1-3.63-.56,10.39,10.39,0,0,1-3-1.56,8.54,8.54,0,0,1-2.15-2.33,7.42,7.42,0,0,1-.8-1.75A7.93,7.93,0,0,1,5.66,90h0l1.8,12.78a7.33,7.33,0,0,0,1,2.84,8,8,0,0,0,2.07,2.28,9.82,9.82,0,0,0,2.92,1.51A11.52,11.52,0,0,0,17,110h94.49a10.64,10.64,0,0,0,3.5-.56,9.82,9.82,0,0,0,2.92-1.51,8.42,8.42,0,0,0,2.07-2.28,7.3,7.3,0,0,0,.87-2.09l.16-.74L122.79,90A7.42,7.42,0,0,1,121.75,92.88Z"/><path class="cls-5" d="M63.4,21.17a39,39,0,0,1,8.67.9A24.06,24.06,0,0,1,79.47,25a15.08,15.08,0,0,1,5.2,5.14,14.92,14.92,0,0,1,2,7.69H74.3a8.44,8.44,0,0,0-1.14-3.9,7,7,0,0,0-2.49-2.41,11.25,11.25,0,0,0-3.55-1.22,24.52,24.52,0,0,0-4.29-.34,15.14,15.14,0,0,0-3.08.32,10,10,0,0,0-2.84,1,5.53,5.53,0,0,0-2.07,1.83A4.91,4.91,0,0,0,54,35.83a4,4,0,0,0,.64,2.47A5.68,5.68,0,0,0,57.2,40a37.72,37.72,0,0,0,5.3,1.62c2.31.58,5.25,1.25,8.91,2.12,1.06.24,2.68.58,4.51,1.11a28,28,0,0,1,5.81,2.44,15.3,15.3,0,0,1,5.06,4.53A13.41,13.41,0,0,1,89,59.32a15.09,15.09,0,0,1-1.46,6.92,15.42,15.42,0,0,1-4.64,5.57,23.37,23.37,0,0,1-7.74,3.71,39.59,39.59,0,0,1-10.74,1.35,37.92,37.92,0,0,1-9.6-1.17,26,26,0,0,1-8.14-3.55A16.43,16.43,0,0,1,39.3,57.44H51.87a9.17,9.17,0,0,0,1,4.59,8.52,8.52,0,0,0,2.86,3.13A13.59,13.59,0,0,0,60,66.93a21.82,21.82,0,0,0,5,.56,23.55,23.55,0,0,0,3.74-.29,16.12,16.12,0,0,0,3.76-1,7.29,7.29,0,0,0,2.89-2.07A5.29,5.29,0,0,0,76.5,60.7,4.8,4.8,0,0,0,75,57.15a11.34,11.34,0,0,0-4-2.28,46.73,46.73,0,0,0-5.62-1.59c-2-.48-4.22-.93-6.39-1.46A61.85,61.85,0,0,1,52.53,50a24.43,24.43,0,0,1-5.59-2.76A12.59,12.59,0,0,1,43,43a12.41,12.41,0,0,1-1.41-6.2,13.44,13.44,0,0,1,2-6.95,16.11,16.11,0,0,1,5-4.88,24.12,24.12,0,0,1,6.95-2.86A33.29,33.29,0,0,1,63.4,21.17Z"/><path class="cls-2" d="M63.4,23.69a40.05,40.05,0,0,1,8.67.9,24.06,24.06,0,0,1,7.4,2.89,15.08,15.08,0,0,1,5.2,5.14,14.92,14.92,0,0,1,2,7.69H74.3a8.44,8.44,0,0,0-1.14-3.9A7,7,0,0,0,70.67,34a11.25,11.25,0,0,0-3.55-1.22,24.52,24.52,0,0,0-4.29-.34,15.14,15.14,0,0,0-3.08.32,10,10,0,0,0-2.84,1,5.53,5.53,0,0,0-2.07,1.83A4.91,4.91,0,0,0,54,38.35a4,4,0,0,0,.64,2.47,5.68,5.68,0,0,0,2.55,1.75,37.72,37.72,0,0,0,5.3,1.62c2.31.58,5.25,1.25,8.91,2.12,1.06.24,2.68.58,4.51,1.11a28,28,0,0,1,5.81,2.44,15.3,15.3,0,0,1,5.06,4.53A13.41,13.41,0,0,1,89,61.84a15.09,15.09,0,0,1-1.46,6.92,15.42,15.42,0,0,1-4.64,5.57A23.37,23.37,0,0,1,75.2,78a39.59,39.59,0,0,1-10.74,1.35,37.92,37.92,0,0,1-9.6-1.17,26,26,0,0,1-8.14-3.55A16.43,16.43,0,0,1,39.3,60H51.87a9.17,9.17,0,0,0,1,4.59,8.52,8.52,0,0,0,2.86,3.13A13.59,13.59,0,0,0,60,69.45,21.82,21.82,0,0,0,65,70a23.55,23.55,0,0,0,3.74-.29,16.12,16.12,0,0,0,3.76-1,7.29,7.29,0,0,0,2.89-2.07,5.29,5.29,0,0,0,1.14-3.39A4.8,4.8,0,0,0,75,59.67a11.34,11.34,0,0,0-4-2.28,46.73,46.73,0,0,0-5.62-1.59c-2-.48-4.22-.93-6.39-1.46a61.85,61.85,0,0,1-6.42-1.86,24.43,24.43,0,0,1-5.59-2.76A12.59,12.59,0,0,1,43,45.51a12.41,12.41,0,0,1-1.41-6.2,13.44,13.44,0,0,1,2-6.95,16.11,16.11,0,0,1,5-4.88,24.12,24.12,0,0,1,6.95-2.86A33.29,33.29,0,0,1,63.4,23.69Z"/></svg>