<svg id="Layer_1" data-name="Layer 1" xmlns="http://www.w3.org/2000/svg" viewBox="0 0 128 128"><defs><style>.cls-1{fill:#4d4d4d;}.cls-2{fill:#545454;}.cls-3{fill:#666;}.cls-4{fill:#8c8c8c;}</style></defs><title>i-love-html5</title><polygon class="cls-1" points="17.84 115.2 7.56 0 120.44 0 110.17 115.2 63.95 128 17.84 115.2"/><polygon class="cls-2" points="64 118.19 101.35 107.86 110.15 9.41 64 9.41 64 118.19"/><polygon class="cls-3" points="64 52.14 45.3 52.14 44.01 37.68 64 37.68 64 23.55 63.96 23.55 28.57 23.55 28.9 27.33 32.39 66.27 64 66.27 64 52.14"/><polygon class="cls-3" points="64 88.84 63.95 88.84 48.21 84.6 47.2 73.35 39.54 73.35 33 73.35 34.99 95.5 63.95 103.58 64 103.56 64 88.84"/><polygon class="cls-4" points="63.96 52.14 63.96 66.27 81.34 66.27 79.71 84.6 63.96 88.84 63.96 103.56 92.92 95.5 93.14 93.14 96.46 55.94 96.81 52.14 92.99 52.14 63.96 52.14"/><polygon class="cls-4" points="63.96 23.55 63.96 32.31 63.96 37.63 63.96 37.68 98.03 37.68 98.03 37.68 98.07 37.68 98.38 34.49 99.01 27.33 99.36 23.55 63.96 23.55"/></svg>