<?xml version="1.0" encoding="utf-8"?>
<!-- Generator: Adobe Illustrator 18.0.0, SVG Export Plug-In . SVG Version: 6.00 Build 0)  -->
<!DOCTYPE svg PUBLIC "-//W3C//DTD SVG 1.1//EN" "http://www.w3.org/Graphics/SVG/1.1/DTD/svg11.dtd">
<svg version="1.1" id="Layer_1" xmlns="http://www.w3.org/2000/svg" xmlns:xlink="http://www.w3.org/1999/xlink" x="0px" y="0px"
	 width="612px" height="612px" viewBox="639.8 179.7 612 612" enable-background="new 639.8 179.7 612 612" xml:space="preserve">
<g>
	<path fill="#595959" d="M1240.5,458.7L972.8,191.1c-15.3-15.3-40.6-15.3-55.9,0l-55.3,55.3l70.6,70.6c16.7-5.4,35.3-2,48,11.3
		c13.3,13.3,16.7,32,11.3,48.6l67.9,67.9c16.7-5.4,35.3-2,48.6,11.3c18.7,18,18.7,48,0,66.6c-18.7,18.7-48,18.7-66.6,0
		c-14-14-17.3-34-10-51.3l-63.3-63.3v166.3c4.7,2,8.6,5.4,12.6,8.6c18.7,18,18.7,48,0,66.6c-18.7,18-48,18-66.6,0
		c-18.7-18.7-18.7-48,0-66.6c4.7-4.7,10-8,15.3-10V404.8c-5.4-2-10.6-6-15.3-10c-14-14-17.3-34-10-51.3l-69.9-69.2L651.3,457.4
		c-15.3,15.3-15.3,40.6,0,55.9l266.9,266.9c15.3,15.3,40.6,15.3,55.9,0l265.6-265.6C1255.7,498.7,1255.7,474.1,1240.5,458.7z"/>
</g>
</svg>
