<svg id="Layer_1" data-name="Layer 1" xmlns="http://www.w3.org/2000/svg" viewBox="0 0 128 128"><defs><style>.cls-1{fill:#595959;}</style></defs><title>i-love-sass</title><path class="cls-1" d="M110.16,71.19a26.74,26.74,0,0,0-11.59,2.68c-1.19-2.36-2.39-4.46-2.59-6a15.86,15.86,0,0,1-.23-5,41.77,41.77,0,0,1,1.53-5.44c0-.23-.27-1.34-2.85-1.36s-4.79.48-5,1.17A27,27,0,0,0,88.32,61c-.44,2.34-5.15,10.69-7.83,15a16.73,16.73,0,0,1-1.78-4.39,15.86,15.86,0,0,1-.23-5A41.77,41.77,0,0,1,80,61.17c0-.23-.27-1.34-2.85-1.36s-4.79.48-5,1.17-.54,2.26-1.07,3.81-6.78,15.48-8.41,19.08c-.84,1.84-1.57,3.33-2.07,4.33h0a1.65,1.65,0,0,1-.08.19c-.44.86-.71,1.34-.71,1.34v0c-.36.63-.73,1.21-.92,1.21s-.4-1.67,0-4c.94-4.83,3.16-12.37,3.14-12.62s.42-1.44-1.44-2.13a2.33,2.33,0,0,0-2.64.44c-.17,0-.27.4-.27.4s2-8.45-3.87-8.45c-3.7,0-8.79,4-11.32,7.7-1.59.86-5,2.72-8.6,4.71-1.38.77-2.8,1.55-4.14,2.26-.08-.08-.19-.21-.27-.31C22.24,71.31,9,65.9,9.57,55.64,9.77,51.9,11.07,42.08,35,30.16c19.69-9.71,35.34-7,38.06-1,3.87,8.52-8.39,24.31-28.73,26.59-7.76.86-11.82-2.13-12.85-3.24s-1.23-1.23-1.63-1c-.65.36-.23,1.4,0,2,.61,1.59,3.12,4.39,7.34,5.77C40.91,60.46,50,61.12,61,56.88c12.32-4.77,21.95-18,19.12-29.13s-21.53-15-39.23-8.7C30.38,22.79,19,28.67,10.78,36.35,1,45.47-.52,53.38.13,56.71c2.26,11.78,18.52,19.46,25,25.13-.33.19-.63.36-.88.48C21,83.93,8.62,90.42,5.53,97.26,2,105,6.09,110.59,8.77,111.34c8.35,2.32,16.93-1.84,21.53-8.73s4-15.8,1.92-19.9a1.2,1.2,0,0,0-.08-.15c.84-.48,1.72-1,2.55-1.51,1.65-1,3.31-1.88,4.71-2.64a30.55,30.55,0,0,0-1.65,8.52c-.36,4.39,1.44,10.11,3.81,12.34a4.17,4.17,0,0,0,3.08,1c2.76,0,4-2.28,5.38-5,1.67-3.33,3.2-7.18,3.2-7.18s-1.88,10.42,3.24,10.42c1.86,0,3.77-2.43,4.6-3.66v0l.15-.23c.19-.31.31-.48.31-.48v0c.75-1.32,2.43-4.27,4.94-9.21,3.22-6.36,6.34-14.31,6.34-14.31A39,39,0,0,0,74,75.79a52.13,52.13,0,0,0,2.66,6c-.75,1-1.21,1.63-1.21,1.63l0,0c-.61.8-1.26,1.65-2,2.51-2.55,3-5.59,6.53-6,7.53-.48,1.19-.38,2.05.56,2.76a5.07,5.07,0,0,0,3.14.52,15.14,15.14,0,0,0,4.71-1.07,15.8,15.8,0,0,0,4-2.13,9,9,0,0,0,3.87-8A16.24,16.24,0,0,0,82.36,80L83,79a105.94,105.94,0,0,0,7-12.11A39,39,0,0,0,91.27,72a34.81,34.81,0,0,0,2.26,5.15A22.15,22.15,0,0,0,86.71,86c-1.46,4.25-.33,6.17,1.84,6.61A6.37,6.37,0,0,0,92,91.88a15.77,15.77,0,0,0,4.33-2.22c2.51-1.84,4.92-4.41,4.77-7.91A14.55,14.55,0,0,0,100,77.09a24.38,24.38,0,0,1,12.41-1.42c11.13,1.32,13.33,8.24,12.91,11.17a7.33,7.33,0,0,1-3.54,5c-.77.48-1,.65-1,1,.08.52.46.48,1.13.4a8.68,8.68,0,0,0,6-7.74C128.28,78.62,121.73,71.13,110.16,71.19ZM24.34,100.13c-3.7,4-8.83,5.54-11,4.25C10.9,103,11.85,97,16.37,92.8A59.27,59.27,0,0,1,25,86.34c.54-.33,1.34-.8,2.28-1.38a1.8,1.8,0,0,0,.25-.15h0l.56-.36A15.86,15.86,0,0,1,24.34,100.13ZM51.22,81.84C49.95,85,47.25,93,45.62,92.55c-1.4-.38-2.26-6.44-.27-12.45a28.39,28.39,0,0,1,4.37-8c2-2.24,4.23-3,4.77-2.07C55.16,71.19,52,79.89,51.22,81.84ZM73.4,92.47c-.54.27-1,.46-1.28.33s.23-.46.23-.46,2.78-3,3.87-4.35c.63-.8,1.38-1.74,2.18-2.78v.31C78.4,89.08,75,91.48,73.4,92.47Zm17.12-3.91c-.4-.27-.33-1.21,1-4.14a16,16,0,0,1,3.81-4.92,6.78,6.78,0,0,1,.38,2.16C95.68,86.17,92.46,87.86,90.52,88.56Z"/></svg>