<svg id="Layer_1" data-name="Layer 1" xmlns="http://www.w3.org/2000/svg" viewBox="0 0 128 128"><defs><style>.cls-1{fill:#737373;}.cls-2{fill:#666;}.cls-3{fill:#828282;}.cls-4{fill:#8c8c8c;}.cls-5{fill:#333;}</style></defs><title>i-love-grunt</title><g id="Layer_1-2" data-name="Layer 1"><path class="cls-1" d="M22.66,31.14s2.18,8.44,2.52,11.26-5.66,9.1-5.66,12.23,1.26,8.74,8.15,11.57,7.84,10,7.84,14.4S33,93.45,33,93.45s-1.57,21,6.88,24.73,6.58,3.73,8.44,3.73,15.66,5.66,23.81,3.44,10.31-4.7,10.31-4.7,8.15.61,10.67-6.58,4.09-22.24,3.14-29.12S94,69,99.67,65.84s11.57-6.88,10.67-10-6-7.53-6-7.53-1.26-7.84-.31-9.71,6.58-6.58,3.44-10-8.74-3.44-8.74-3.44l-7.18.61s-12.23-11-28.2-10.31a42.44,42.44,0,0,0-26,10.33s-5.32-1.87-10,0S21.71,25.84,22.66,31.14Z"/><path class="cls-2" d="M51.28,77.74s-6.19,9.47-10.73,16.19C39.85,95,45.09,95,45.09,95Z"/><path class="cls-2" d="M54.22,58.12s-1.87,4.65-2.91,7.14c-1.12,2.67-5.35,4-5.35,4s2.18-2.29,2.18-8.15c0-2.44,3.17-3.44,3.17-3.44Z"/><path class="cls-2" d="M52.35,60.75s-3.81,4.54-10.93,2-7.84-11.65-7.84-14.21,13.49,2.55,15.32,3.64S54.14,57.65,52.35,60.75Z"/><path class="cls-2" d="M25.49,12s6.58-1.26,10.93,2.18,5.66,6.19,5.66,6.19L34.7,26.29A9.47,9.47,0,0,1,30,19.91C28.93,15.14,29.66,13,25.49,12Z"/><path class="cls-2" d="M50.41,47.56a15.21,15.21,0,0,0-11.2-6c-6.34-.5-9.36,1.76-9.36,1.76s10.39.45,13.37,4.36c5.58,7.34,13.72,7.9,15,6.3-1.49.08-3.17-.69-4.93-2.33A29.62,29.62,0,0,1,50.41,47.56Z"/><path class="cls-2" d="M32.91,61.79s-11.54-4-9.33-8,.45-6.19.45-6.19-6.46,4.78-4.82,9.89c1,3.14,2.72,5.38,12,9.75,4.48,8.26.92,23.16,1.15,23.22s6.27-2.91,5.85-16.86C38.06,69.33,37.72,63.53,32.91,61.79Z"/><path class="cls-2" d="M48,19.18c-4.82,2.44-11.46,5.88-11.46,5.88l2.6,1.29a7.34,7.34,0,0,0-.39.65l2.67,1.23S48,33,51.93,36c-1.34-4.09-5.24-10.55-5.24-10.55A7.13,7.13,0,0,1,48,19.18Z"/><path class="cls-2" d="M64,119.18c-14.87,0-19.86-7.53-19.86-7.53l2.33,5.66c.87,2.44,10.25,10.05,17.54,10.05"/><path class="cls-2" d="M45.77,106.57s1.37,8.37,6.84,8.37c4.65,0,6-7.06,6-8.52Z"/><path class="cls-2" d="M36.69,94a60.59,60.59,0,0,0,2.75-11.65,134,134,0,0,0,.42-14.51s-1.45,5.66-2.75,6.58-3.64,7.11-3.64,7.11-1.26,9.24-1.87,12.35C33.24,94.13,34.65,93.14,36.69,94Z"/><path class="cls-2" d="M23.47,57.42s3.09-1.12,4-7.84A30,30,0,0,0,26.36,37s.19,9.28-.92,11.12-2,2.38-3.28,4.75S22.74,56.69,23.47,57.42Z"/><path class="cls-3" d="M27.17,13.66l-.65-.39C24.68,13.3,27.17,13.66,27.17,13.66Z"/><path class="cls-1" d="M50.52,17.16a7.42,7.42,0,0,1-4.4-2.67A15.08,15.08,0,0,0,33.94,7.89,55.65,55.65,0,0,0,20.83,9.65l5.69,3.59c.61,0,1.65,0,3.39,0,7.14.23,8.26,7.31,8.26,7.31L63.35,17.1"/><path class="cls-4" d="M53,56.16a9.88,9.88,0,0,1-8.63,2.29c-5.24-1.12-8.4-3.39-8.63-7.42s1.12-5.58,1.12-5.58,5.85,1.83,8.63,4.23S50.25,56,53,56.16Z"/><path class="cls-3" d="M48.84,55a9.48,9.48,0,0,1-6.27.27,7,7,0,0,1-4.62-5.92s-2.63,7.79,4.78,9.28a10.91,10.91,0,0,0,9.47-2.25Z"/><path class="cls-5" d="M50.94,15.52c-.31-6.69,5.16-12,7-12.23.11,1.15-.11,5.54,1.79,6.88C60.3,6.58,62.17,2.6,69.54,0A12.3,12.3,0,0,0,70,9.33c5-4.54,8.4-3.81,8.4-3.81s-3.47,6-2.13,10C66.15,14.76,51,16.6,50.94,15.52Z"/><path class="cls-5" d="M29.54,25.68c-2.41-2-.61-3.86-.81-6.11a7.31,7.31,0,0,0-.61-3C25.91,13.07,20.67,12,20.64,12l-2.44-.5L19.85,9.6A17.31,17.31,0,0,1,37,6.32C44.25,8.65,49.6,16.57,49.79,16.87l-3.64,1.71c0-.08-4.28-7.48-10.47-9.47A16,16,0,0,0,24.06,10a13.66,13.66,0,0,1,6.5,5,9.52,9.52,0,0,1,1,4.28c.15,2,.31,3.86,1.79,5.07Z"/><path class="cls-5" d="M23.08,54.82s3-3.75,3.94-11.09c.34-2.86-.27-8.57-1.26-10.78a43.71,43.71,0,0,1-1.18,10.78S23.66,53.75,23.08,54.82Z"/><path class="cls-5" d="M39.09,21.9s-1-4.23-3.67-6.42c-3.78-3-8.44-1.41-8.48-1.41L26.25,12a12.42,12.42,0,0,1,10.42,1.68c4.93,3.44,5.49,6.58,5.58,6.95Z"/><path class="cls-5" d="M32.63,52.15a7.81,7.81,0,0,1-1.29-4.78,3.54,3.54,0,0,1,1.76-2.94c1.91-.84,2.75,1.34,2.75,1.34S33.13,46.38,32.63,52.15Z"/><path class="cls-5" d="M50.1,55.63a1,1,0,0,1,.11.19s-5,3.75-10.05,0c-2.72-2-2.49-7-1.65-9.16A16.41,16.41,0,0,1,44.06,49c-2-1.71-3.64-3-3.64-3.05l-2.21-.61-4.28-1.49c0,.34-1.6,7.68,2.91,12.69,2,2.21,11.39,7.18,15.85-1.29Z"/><path class="cls-5" d="M49.63,56.16c2.8,4.23,9.86,1.83,9.75-2.67,0,0-4.7,2.6-8.86-2.18-2.44-2.8-10.2-10.51-20.78-8C37,45,46.66,51.62,49.63,56.16Z"/><path class="cls-5" d="M28.7,68.14a8.29,8.29,0,0,1,3.05,6.53,137.1,137.1,0,0,1-1.12,16.74c1.37.87,2.33,1.07,3.7,2a165.21,165.21,0,0,0,1-19.86A10.53,10.53,0,0,0,30.51,65l-2.1-1.15c-3.68-2-7.55-4.09-7.55-7.64a4.8,4.8,0,0,1,2.21-4.54l.11-.11a6.79,6.79,0,0,0,2.13-2.44c1.37-3.14,1.6-11,0-13.07-.81-1-2.94-4.4-2.33-6.64a3,3,0,0,1,1.68-2,8.17,8.17,0,0,1,3.78-.73,29.2,29.2,0,0,1,8.21,1.49c6.27,2,13.83,7.76,16,9.44a.25.25,0,0,1,.11.08l1.37,1-.87-1.45c0-.08-5.54-9.13-15.4-12.46A31.11,31.11,0,0,0,28.54,23,12.09,12.09,0,0,0,23,24.16a6.72,6.72,0,0,0-3.52,4.23c-1.23,4.54,2.8,9.63,2.94,9.78.45.84.69,6.95-.42,9.41a3.9,3.9,0,0,1-1.07,1.12l-.53.42c-1.54,1.15-3.86,2.91-3.86,6.95,0,5.54,5.62,8.52,10.08,10.93C27.36,67.41,28.09,67.8,28.7,68.14Z"/><path class="cls-5" d="M29.54,25.68c-2.41-2-.61-3.86-.81-6.11a7.31,7.31,0,0,0-.61-3C25.91,13.07,20.67,12,20.64,12l-2.44-.5L19.85,9.6A17.31,17.31,0,0,1,37,6.32C44.25,8.65,49.6,16.57,49.79,16.87l-3.64,1.71c0-.08-4.28-7.48-10.47-9.47A16,16,0,0,0,24.06,10a13.66,13.66,0,0,1,6.5,5,9.52,9.52,0,0,1,1,4.28c.15,2,.31,3.86,1.79,5.07Z"/><path class="cls-5" d="M29.46,26.1,29.32,26c-1.79-1.49-1.45-2.94-1.15-4.36a6.07,6.07,0,0,0,.23-2,8.35,8.35,0,0,0-.53-2.83c-2.1-3.33-7.22-4.4-7.26-4.4l-3.05-.61,2-2.36A16.9,16.9,0,0,1,31.11,5a20,20,0,0,1,6,1c7.53,2.44,12.91,10.62,12.95,10.7l.23.34-4.32,2-.15-.27c-.45-.81-4.51-7.48-10.28-9.33a14.5,14.5,0,0,0-4.43-.69A16.45,16.45,0,0,0,25,10a13.28,13.28,0,0,1,5.92,4.82A9.92,9.92,0,0,1,32,19.31c.15,1.91.31,3.75,1.65,4.85l.5.42Z"/><path class="cls-5" d="M39.09,21.9s-1-4.23-3.67-6.42c-3.78-3-8.44-1.41-8.48-1.41L26.25,12a12.42,12.42,0,0,1,10.42,1.68c4.93,3.44,5.49,6.58,5.58,6.95Z"/><path class="cls-5" d="M38.82,22.4,38.74,22s-1-4.12-3.56-6.19A8.16,8.16,0,0,0,29.92,14a9.92,9.92,0,0,0-2.86.42l-.34.11-.92-2.8.34-.11a12.79,12.79,0,0,1,3.56-.5,12.33,12.33,0,0,1,7.18,2.21c5,3.56,5.66,6.8,5.69,7.18l0,.27Zm-8.91-9.1a9.12,9.12,0,0,1,5.74,1.91c2.29,1.83,3.36,5,3.7,6.19l2.49-1c-.23-.87-1.23-3.52-5.35-6.42a11.77,11.77,0,0,0-6.8-2.1,13.81,13.81,0,0,0-3,.34l.45,1.37A13.16,13.16,0,0,1,29.92,13.3Z"/><path class="cls-5" d="M52.38,112.91h0a4.53,4.53,0,0,1-2.94-1.07A13.5,13.5,0,0,1,46,107.3a1.68,1.68,0,0,1,.23-2,3.15,3.15,0,0,1,2.38-.73h7.34a3.12,3.12,0,0,1,2.21.65,1.55,1.55,0,0,1,.23,1.68,18.86,18.86,0,0,1-3.25,4.85A3.6,3.6,0,0,1,52.38,112.91Z"/><path class="cls-5" d="M53.53,56.44l-3.89-.27a21.76,21.76,0,0,1,1.65,4c.73,2.55-.65,6.3-.65,6.3S55.79,60.64,53.53,56.44Z"/><path class="cls-5" d="M48.68,123.18C34.84,122.12,30,109,30,106.29H33.6c0,1.18,3.7,12.38,15.4,13.25Z"/><path class="cls-4" d="M44.78,99.73a8.92,8.92,0,0,1,0-3.59c-1.07-.81-2.94-1.07-4.36-1.54-1.15-.73-7.06.76-11.39-4.48-5.38-6.53-4.23-10.39-4.23-10.39-1.37,1.54-2.72,1-4.82,8.1S21,100,26.76,105c2.72,2.38,6.58,3.33,9.89,3.7-1.12-1.12,1.91-1.23,4-2A5.64,5.64,0,0,1,42,102.09a7,7,0,0,1,2.72-1.65c0-.11.11-.27.15-.39A.74.74,0,0,1,44.78,99.73Z"/><path class="cls-3" d="M40.58,106.63c-.11-.34-.23-.73-.31-1.07s-.57-1.54,0-.23a3.31,3.31,0,0,1-.31-1c-9.36,0-17.5-6.42-15.94-19.94-1.23-1.65-2.94,3.28-2.94,3.28s-4.7,13.61,7.42,18.88c4,1.76,7.6,3,8.44,2.52a4.31,4.31,0,0,0,3.94-1.68A7.72,7.72,0,0,1,40.58,106.63Z"/><path class="cls-5" d="M44.59,97.78a7.05,7.05,0,0,1,.81-3.36c0-.08.08-.15.11-.23A31.93,31.93,0,0,1,34.25,92.4c-3.89-1.57-8.74-6.88-9.55-13.11,0,0-7.31,5.66-5.16,17.7,2,11.35,11.51,15,22.32,15.66,0-.08-1.23-2.6-.84-4.12-6.16.45-13-1.91-16.32-7.37-3-5-2.18-13.53-1-14.76C26.78,96,37.75,97.92,44.59,97.78Z"/><path class="cls-5" d="M45.74,90.91a36,36,0,0,1-5.92,10.31s5.46-.27,5.77-1.23a114.15,114.15,0,0,0,6.76-24.68C50.63,78.16,45.9,90.42,45.74,90.91Z"/><path class="cls-2" d="M76.69,77.74s6.19,9.47,10.73,16.19c.69,1-4.54,1.12-4.54,1.12Z"/><path class="cls-2" d="M73.75,58.12s1.87,4.65,2.91,7.14c1.12,2.67,5.35,4,5.35,4S79.82,67,79.82,61.12c0-2.44-3.17-3.44-3.17-3.44Z"/><path class="cls-2" d="M75.62,60.75s3.81,4.54,10.93,2,7.84-11.65,7.84-14.21-13.49,2.55-15.32,3.64S73.79,57.65,75.62,60.75Z"/><path class="cls-2" d="M102.48,12s-6.58-1.26-10.93,2.18-5.66,6.19-5.66,6.19l7.37,5.85a9.47,9.47,0,0,0,4.65-6.38C99,15.14,98.28,13,102.48,12Z"/><path class="cls-2" d="M77.53,47.56a15.21,15.21,0,0,1,11.2-6c6.34-.5,9.36,1.76,9.36,1.76s-10.39.45-13.37,4.36c-5.58,7.34-13.72,7.9-15,6.3,1.49.08,3.17-.69,4.93-2.33A27.08,27.08,0,0,0,77.53,47.56Z"/><path class="cls-2" d="M95.08,61.79s11.54-4,9.33-8-.45-6.19-.45-6.19,6.42,4.82,4.78,9.89c-1,3.14-2.72,5.38-12,9.75-4.48,8.26-.92,23.16-1.15,23.22s-6.27-2.91-5.85-16.86C89.91,69.33,90.26,63.53,95.08,61.79Z"/><path class="cls-2" d="M80,19.18c4.82,2.44,11.46,5.88,11.46,5.88l-2.6,1.29a7.34,7.34,0,0,1,.39.65l-2.67,1.23S80,33,76,36c1.34-4.09,5.24-10.55,5.24-10.55A7.07,7.07,0,0,0,80,19.18Z"/><path class="cls-2" d="M64,119.18c14.87,0,19.86-7.53,19.86-7.53L81.5,117.3c-.87,2.44-10.25,10.05-17.54,10.05"/><path class="cls-2" d="M82.17,106.57s-1.37,8.37-6.84,8.37c-4.65,0-6-7.06-6-8.52Z"/><path class="cls-2" d="M91.3,94a60.59,60.59,0,0,1-2.75-11.65,134,134,0,0,1-.42-14.51s1.45,5.66,2.75,6.58,3.64,7.11,3.64,7.11,1.26,9.24,1.87,12.35C94.72,94.13,93.32,93.14,91.3,94Z"/><path class="cls-2" d="M104.52,57.42s-3.09-1.12-4-7.84A30,30,0,0,1,101.62,37s-.19,9.28.92,11.12,2,2.38,3.28,4.74S105.23,56.69,104.52,57.42Z"/><path class="cls-3" d="M100.8,13.66l.65-.39C103.29,13.3,100.8,13.66,100.8,13.66Z"/><path class="cls-1" d="M77.46,17.16a7.42,7.42,0,0,0,4.4-2.67A15.08,15.08,0,0,1,94,7.89a55.65,55.65,0,0,1,13.11,1.76l-5.69,3.59c-.61,0-1.65,0-3.39,0-7.14.23-8.26,7.31-8.26,7.31L64.63,17.1"/><path class="cls-4" d="M75,56.16a9.88,9.88,0,0,0,8.63,2.29c5.24-1.1,8.4-3.39,8.63-7.42s-1.12-5.58-1.12-5.58-5.85,1.83-8.63,4.23S77.69,56,75,56.16Z"/><path class="cls-3" d="M79.14,55a9.48,9.48,0,0,0,6.27.27A7,7,0,0,0,90,49.34s2.63,7.79-4.78,9.28a10.91,10.91,0,0,1-9.47-2.25Z"/><path class="cls-5" d="M98.44,25.68c2.41-2,.61-3.86.81-6.11a7.31,7.31,0,0,1,.61-3c2.2-3.52,7.43-4.56,7.48-4.59l2.44-.5L108.14,9.6a17.36,17.36,0,0,0-17.2-3.28C83.72,8.65,78.37,16.57,78.17,16.87l3.64,1.71c0-.08,4.28-7.48,10.47-9.47A16,16,0,0,1,103.9,10a13.66,13.66,0,0,0-6.5,5,9.52,9.52,0,0,0-1,4.28c-.15,2-.34,3.86-1.79,5.07Z"/><path class="cls-5" d="M104.86,54.82s-3-3.75-3.94-11.09c-.34-2.86.27-8.57,1.26-10.78a43.71,43.71,0,0,0,1.18,10.78S104.32,53.75,104.86,54.82Z"/><path class="cls-5" d="M88.89,21.9s1-4.23,3.67-6.42c3.78-3,8.44-1.41,8.48-1.41l.69-2.07a12.42,12.42,0,0,0-10.42,1.68c-4.93,3.44-5.49,6.58-5.58,6.95Z"/><path class="cls-5" d="M95.34,52.15a7.81,7.81,0,0,0,1.29-4.78,3.61,3.61,0,0,0-1.71-2.94c-1.91-.84-2.75,1.34-2.75,1.34S94.84,46.38,95.34,52.15Z"/><path class="cls-5" d="M77.88,55.63a1,1,0,0,0-.11.19s5,3.75,10.05,0c2.72-2,2.49-7,1.65-9.16A16.41,16.41,0,0,0,83.93,49c2-1.71,3.64-3,3.64-3.05l2.21-.61,4.28-1.49c0,.34,1.6,7.68-2.91,12.69-2,2.21-11.39,7.18-15.85-1.29Z"/><path class="cls-5" d="M78.34,56.16c-2.8,4.23-9.86,1.83-9.75-2.67,0,0,4.7,2.6,8.86-2.18,2.44-2.8,10.25-10.51,20.78-8C91,45,81.33,51.62,78.34,56.16Z"/><path class="cls-5" d="M99.23,68.14a8.29,8.29,0,0,0-3.05,6.53,137.1,137.1,0,0,0,1.12,16.74c-1.37.87-2.33,1.07-3.7,2a165.21,165.21,0,0,1-1-19.86A10.53,10.53,0,0,1,97.42,65l2.1-1.15c3.7-2,7.56-4.09,7.56-7.64a4.8,4.8,0,0,0-2.21-4.54l-.11-.11a6.79,6.79,0,0,1-2.13-2.44c-1.37-3.14-1.6-11,0-13.07.81-1,2.94-4.4,2.33-6.64a3,3,0,0,0-1.68-2,8.17,8.17,0,0,0-3.78-.73,29.2,29.2,0,0,0-8.21,1.49c-6.22,2-13.79,7.76-16,9.44a.25.25,0,0,0-.11.08l-1.37,1,.87-1.45c0-.08,5.54-9.13,15.4-12.46A31.11,31.11,0,0,1,99.46,23,12.09,12.09,0,0,1,105,24.16a6.72,6.72,0,0,1,3.52,4.23c1.23,4.54-2.8,9.63-2.94,9.78-.45.84-.69,6.95.42,9.41a3.9,3.9,0,0,0,1.07,1.12l.53.42c1.54,1.15,3.86,2.91,3.86,6.95,0,5.54-5.62,8.52-10.08,10.93C100.57,67.41,99.89,67.8,99.23,68.14Z"/><path class="cls-5" d="M92.56,25c-.87-1.54-3.17-4.43-8.4-7A45.61,45.61,0,0,0,64,13.72h0A45.66,45.66,0,0,0,43.81,18c-5.24,2.55-7.53,5.46-8.4,7l-.39.5,4.51,1,.15-.19.08-.15c.08-.31.69-1.91,5.69-4.36A42.22,42.22,0,0,1,64,17.87a42.22,42.22,0,0,1,18.57,3.94c5,2.44,5.62,4.06,5.69,4.36l.08.15.15.19,4.51-1Z"/><path class="cls-5" d="M98.44,25.68c2.41-2,.61-3.86.81-6.11a7.31,7.31,0,0,1,.61-3c2.2-3.52,7.43-4.56,7.48-4.59l2.44-.5L108.14,9.6a17.36,17.36,0,0,0-17.2-3.28C83.72,8.65,78.37,16.57,78.17,16.87l3.64,1.71c0-.08,4.28-7.48,10.47-9.47A16,16,0,0,1,103.9,10a13.66,13.66,0,0,0-6.5,5,9.52,9.52,0,0,0-1,4.28c-.15,2-.34,3.86-1.79,5.07Z"/><path class="cls-5" d="M93.82,24.53l.5-.42C95.66,23,95.81,21.17,96,19.26a9.57,9.57,0,0,1,1.12-4.48A13.8,13.8,0,0,1,103,10a16.23,16.23,0,0,0-6.19-1.26,14,14,0,0,0-4.43.69c-5.74,1.87-9.83,8.57-10.28,9.33l-.19.27-4.23-2,.23-.34c0-.08,5.43-8.26,12.95-10.7a19.87,19.87,0,0,1,6-1,17,17,0,0,1,11.57,4.36l2,2.38-3.05.58s-5.16,1.07-7.26,4.4a7.42,7.42,0,0,0-.53,2.83,6,6,0,0,0,.23,2c.31,1.41.61,2.86-1.15,4.36l-.15.11Z"/><path class="cls-5" d="M88.89,21.9s1-4.23,3.67-6.42c3.78-3,8.44-1.41,8.48-1.41l.69-2.07a12.42,12.42,0,0,0-10.42,1.68c-4.93,3.44-5.49,6.58-5.58,6.95Z"/><path class="cls-5" d="M85.33,20.86l0-.27c0-.34.69-3.64,5.69-7.18a12.37,12.37,0,0,1,7.18-2.21,11.11,11.11,0,0,1,3.56.5l.34.11-.92,2.8-.34-.11A9.92,9.92,0,0,0,98,14.08a8.41,8.41,0,0,0-5.27,1.76C90.18,17.91,89.21,22,89.18,22l-.08.42Zm15.47-7.21.45-1.37a12,12,0,0,0-3-.34A11.36,11.36,0,0,0,91.52,14C87.4,17,86.4,19.59,86.17,20.46l2.49,1c.34-1.15,1.41-4.36,3.7-6.19a9,9,0,0,1,5.74-1.91A8.53,8.53,0,0,1,100.8,13.66Z"/><path class="cls-5" d="M72.79,111.81A18.32,18.32,0,0,1,69.54,107a1.52,1.52,0,0,1,.23-1.68,3.12,3.12,0,0,1,2.21-.65h7.34a3.21,3.21,0,0,1,2.38.73,1.8,1.8,0,0,1,.23,2,12.55,12.55,0,0,1-3.44,4.54A4.71,4.71,0,0,1,75.54,113h0A4.21,4.21,0,0,1,72.79,111.81Z"/><path class="cls-5" d="M74.44,56.44l3.89-.27a21.76,21.76,0,0,0-1.65,4c-.73,2.55.65,6.3.65,6.3S72.18,60.64,74.44,56.44Z"/><path class="cls-2" d="M64,42.52c-2.49,0-5.69-.08-8.15-1.79,0,0,3.17,5.58,8.15,5.58v0c5,0,8.15-5.58,8.15-5.58C69.66,42.44,66.46,42.52,64,42.52Z"/><path class="cls-5" d="M70.8,42.49A13.51,13.51,0,0,1,64,44.56a13.24,13.24,0,0,1-6.84-2.07s3.64,4.43,6.8,4.48h0C67.18,46.92,70.8,42.49,70.8,42.49Z"/><path class="cls-5" d="M79.29,123.18,79,119.6c11.68-.92,15.35-12.07,15.35-13.25H98C98,109,93.12,122.12,79.29,123.18Z"/><path class="cls-4" d="M83.18,99.73a8.92,8.92,0,0,0,0-3.59c1.07-.81,2.94-1.07,4.36-1.54,1.15-.73,7.11.76,11.39-4.48,5.38-6.53,4.23-10.39,4.23-10.39,1.37,1.54,2.72,1,4.82,8.1S107,100,101.2,105c-2.72,2.38-6.58,3.33-9.89,3.7,1.12-1.12-1.91-1.23-4-2A5.64,5.64,0,0,0,86,102.09a7,7,0,0,0-2.72-1.65c0-.11-.11-.27-.15-.39A1.89,1.89,0,0,0,83.18,99.73Z"/><path class="cls-3" d="M87.35,106.63c.11-.34.23-.73.31-1.07s.57-1.54,0-.23a3.31,3.31,0,0,0,.31-1c9.36,0,17.5-6.42,15.94-19.94,1.23-1.65,2.94,3.28,2.94,3.28s4.7,13.61-7.42,18.88c-4,1.76-7.6,3-8.44,2.52A4.31,4.31,0,0,1,87,107.41,3.1,3.1,0,0,0,87.35,106.63Z"/><path class="cls-5" d="M83.35,97.78a7.05,7.05,0,0,0-.81-3.36c0-.08-.08-.15-.11-.23A31.93,31.93,0,0,0,93.69,92.4c3.91-1.57,8.76-6.88,9.57-13.11,0,0,7.31,5.66,5.16,17.7-2,11.35-11.51,15-22.32,15.66,0-.08,1.23-2.6.84-4.12,6.16.45,13-1.91,16.32-7.37,3-5,2.18-13.53.92-14.76C101.19,96,90.21,97.92,83.35,97.78Z"/><path class="cls-5" d="M87.74,100.61c-1.29-1.41-3.67-3.05-9.13-3.05H49.42c-5.46,0-7.87,1.68-9.13,3.05-1.87,2-2.18,4.85-.87,8.4,3.47,9.41,8.32,19,24.61,19h0c16.27,0,21.17-9.58,24.61-19C89.91,105.49,89.62,102.67,87.74,100.61Zm-2.57,7.76c-1.65,4.74-6.08,16.16-21.2,16.19s-19.56-11.46-21.2-16.19c-.92-2.63-.84-4.54.23-5.77.73-.84,2.38-1.79,6.16-1.79H78.84c3.78,0,5.43,1,6.16,1.79C86,103.77,86.09,105.73,85.17,108.36Z"/><path class="cls-5" d="M82.23,90.91a36,36,0,0,0,5.92,10.31s-5.46-.27-5.77-1.23a114.15,114.15,0,0,1-6.76-24.68C77.35,78.16,82,90.42,82.23,90.91Z"/></g></svg>