<?xml version="1.0" encoding="utf-8"?>
<!-- Generator: Adobe Illustrator 18.0.0, SVG Export Plug-In . SVG Version: 6.00 Build 0)  -->
<!DOCTYPE svg PUBLIC "-//W3C//DTD SVG 1.1//EN" "http://www.w3.org/Graphics/SVG/1.1/DTD/svg11.dtd">
<svg version="1.1" id="Layer_1" xmlns="http://www.w3.org/2000/svg" xmlns:xlink="http://www.w3.org/1999/xlink" x="0px" y="0px"
	 width="612px" height="611.8px" viewBox="319.8 90.1 612 611.8" enable-background="new 319.8 90.1 612 611.8"
	 xml:space="preserve">
<g>
	<g>
		<rect x="319.8" y="90.1" fill="#595959" width="612" height="611.8"/>
	</g>
	<g>
		<path fill="#262626" d="M480.5,600.9l46.8-28.2c8.9,16,17.2,29.6,36.9,29.6c18.9,0,30.8-7.4,30.8-36.2V370.8h57.5v196.1
			c0,59.6-34.9,86.6-85.7,86.6C520.8,653.4,494.1,629.6,480.5,600.9"/>
		<path fill="#262626" d="M683.7,594.7l46.8-27.1c12.4,20.1,28.2,34.9,56.7,34.9c23.8,0,38.9-11.9,38.9-28.2
			c0-19.7-15.7-26.7-41.8-38.2l-14.3-6.2c-41.4-17.6-68.9-39.8-68.9-86.6c0-43.1,32.9-75.9,84.1-75.9c36.5,0,62.8,12.8,81.6,46
			l-44.9,28.8c-9.8-17.6-20.5-24.6-36.9-24.6c-16.8,0-27.5,10.7-27.5,24.6c0,17.2,10.7,24.2,35.3,34.9l14.3,6.2
			c48.9,21,76.2,42.2,76.2,90.2c0,51.7-40.6,80.1-95.2,80.1C734.9,653.4,700.5,627.9,683.7,594.7"/>
	</g>
</g>
</svg>
