<?xml version="1.0" encoding="utf-8"?>
<!-- Generator: Adobe Illustrator 18.0.0, SVG Export Plug-In . SVG Version: 6.00 Build 0)  -->
<!DOCTYPE svg PUBLIC "-//W3C//DTD SVG 1.1 Tiny//EN" "http://www.w3.org/Graphics/SVG/1.1/DTD/svg11-tiny.dtd">
<svg version="1.1" baseProfile="tiny" id="Layer_1" xmlns="http://www.w3.org/2000/svg" xmlns:xlink="http://www.w3.org/1999/xlink"
	 x="0px" y="0px" width="43.9px" height="38.8px" viewBox="203 41.2 43.9 38.8" xml:space="preserve">
<path fill="#595959" d="M236,41.2L236,41.2L236,41.2L236,41.2L236,41.2l-11,4.4l-11-4.4l0,0l0,0l0,0l0,0l-11,4.4V80l11-4.2l11,4.2
	l0,0l0,0l0,0l0,0l10.9-4.2l11,4.2V45.6L236,41.2z M240.2,61.2c-0.4,0.8-1.4,3.1-1,2.6c-0.4,0.5-0.7,0.6-1.7,0.4
	c-0.8,0.6-1.2,0.8-2.1,1.3c-1,0.2-3.1-0.5-4-0.7c-1.8-0.3-1.9,0.1-3.5,0.9c-2.3,1.1-1.8,4-2.7,5.6l0,0l0,0c0.1,0.2,0.1,0.4,0.2,0.5
	l0,0l0,0c0,0.2,0.1,0.3,0.1,0.5c-2.6,0.3-5.2-0.1-7.6-1.2c-1.8-0.9-3.4-2.2-4.7-3.8c0.3-0.2,0.6-0.3,0.9-0.5l0,0
	c0.2-0.1,0.4-0.2,0.5-0.3h-0.3c-0.6-0.1-0.2-0.1-0.7-0.1c0.5-0.6,1.3-1.2,1.4-1.2l0.1-0.1c-0.7,0.2-1.7,0.5-2.2,1
	c0.2-0.9,0.9-1.5,1.2-2.3c-0.8,0.4-1.6,1-2.3,1.6c0-0.8,0.9-1.5,1.3-2.1c0.3-0.5,0.7-0.8,0.9-1.2c-0.9,0.3-2.8,1.3-3.5,1.8
	c0.4-1.2,1.9-2.9,2.8-3.8c-0.8,0.1-2.7,1.2-3.4,1.6c0-0.1,0-0.1,0-0.2c0.6-0.9,2.4-2.4,3.3-3.2c-1,0.1-3,1.2-4,1.5
	c0.8-1.5,3.5-3.3,4.8-4.4l-3.1,0.8c-0.4,0.1-0.9,0.4-1.3,0.3c1.6-1.7,5-4.5,7.1-5.8c0,0,3-2.1,6-1.8c1.4,0.4,2.6,0.9,4,1.2
	c1.2-0.3,2.8-0.7,4,0.1c0.8,0.7,1.5,1.7,1.1,2.8c2.1,2.3,6.7,2.6,8,4.3c0.2,0.3,0.1,2.2,0.5,3.4L240.2,61.2z"/>
</svg>
