<svg id="Layer_1" data-name="Layer 1" xmlns="http://www.w3.org/2000/svg" viewBox="0 0 128 128"><defs><style>.cls-1{fill:#595959;}</style></defs><title>i-love-mdn</title><path class="cls-1" d="M96.22,7.44h0L64.15,20.26,32.07,7.44h0L0,20.26v100.3l32.07-12.25,32.07,12.25h0l31.78-12.25L128,120.56V20.26Zm12.25,58.31c-1.17,2.33-4.08,9-2.92,7.58-1.17,1.46-2,1.75-5,1.17a43.14,43.14,0,0,1-6.12,3.79c-2.92.58-9-1.46-11.66-2-5.25-.87-5.54.29-10.21,2.62-6.71,3.21-5.25,11.66-7.87,16.33h0c.29.58.29,1.17.58,1.46h0c0,.58.29.87.29,1.46a41.46,41.46,0,0,1-22.16-3.5,41.81,41.81,0,0,1-13.7-11.08c.87-.58,1.75-.87,2.62-1.46h0a6.37,6.37,0,0,0,1.46-.87h-.87c-1.75-.29-.58-.29-2-.29A15.7,15.7,0,0,1,35,77.41l.29-.29c-2,.58-5,1.46-6.41,2.92.58-2.62,2.62-4.37,3.5-6.71A34.59,34.59,0,0,0,25.66,78c0-2.33,2.62-4.37,3.79-6.12.87-1.46,2-2.33,2.62-3.5a56,56,0,0,0-10.21,5.25C23,70.12,27.41,65.17,30,62.54c-2.33.29-7.87,3.5-9.91,4.67v-.58c1.75-2.62,7-7,9.62-9.33-2.92.29-8.75,3.5-11.66,4.37,2.33-4.37,10.21-9.62,14-12.83l-9,2.33c-1.17.29-2.62,1.17-3.79.87a130.8,130.8,0,0,1,20.7-16.91S48.69,29,57.44,29.89c4.08,1.17,7.58,2.62,11.66,3.5,3.5-.87,8.16-2,11.66.29,2.33,2,4.37,5,3.21,8.16,6.12,6.71,19.54,7.58,23.33,12.54.58.87.29,6.41,1.46,9.91Z"/></svg>