<?xml version="1.0" encoding="utf-8"?>
<!-- Generator: Adobe Illustrator 18.0.0, SVG Export Plug-In . SVG Version: 6.00 Build 0)  -->
<!DOCTYPE svg PUBLIC "-//W3C//DTD SVG 1.1//EN" "http://www.w3.org/Graphics/SVG/1.1/DTD/svg11.dtd">
<svg version="1.1" id="Layer_1" xmlns="http://www.w3.org/2000/svg" xmlns:xlink="http://www.w3.org/1999/xlink" x="0px" y="0px"
	 width="611.6px" height="458.7px" viewBox="0 166.6 611.6 458.7" enable-background="new 0 166.6 611.6 458.7"
	 xml:space="preserve">
<path fill="#595959" d="M526.6,430.3c-21.3,0.1-39.9,5.3-55.4,12.8c-5.7-11.3-11.4-21.3-12.4-28.7c-1.1-8.6-2.5-13.9-1.1-24.1
	c1.3-10.3,7.4-24.9,7.3-26c-0.1-1.1-1.3-6.4-13.6-6.5c-12.3-0.1-22.9,2.3-24.1,5.6c-1.2,3.2-3.6,10.6-5.1,18.2
	c-2.1,11.2-24.6,51.1-37.4,71.9c-4.1-8.2-7.7-15.3-8.5-21c-1.1-8.6-2.5-13.9-1.1-24.1c1.3-10.3,7.4-24.9,7.3-26s-1.3-6.4-13.6-6.5
	c-12.3-0.1-22.9,2.3-24.1,5.6c-1.2,3.2-2.6,10.8-5.1,18.2c-2.6,7.4-32.4,74-40.2,91.2c-4,8.8-7.5,15.9-9.9,20.7l0,0
	c0,0-0.1,0.3-0.4,0.9c-2.1,4.1-3.4,6.4-3.4,6.4s0,0,0,0.1c-1.7,3-3.5,5.8-4.4,5.8c-0.7,0-1.9-8,0.2-19c4.5-23.1,15.1-59.1,15-60.3
	c0-0.7,2-6.9-6.9-10.2c-8.7-3.2-11.8,2.1-12.6,2.1s-1.3,1.9-1.3,1.9s9.7-40.4-18.5-40.4c-17.7,0-42,19.3-54.1,36.8
	c-7.6,4.1-23.8,13-41.1,22.5c-6.6,3.7-13.4,7.4-19.8,10.8c-0.4-0.4-0.9-1-1.3-1.5C106.4,430.9,43.1,405,45.8,356
	c1-17.9,7.2-64.8,121.4-121.8c94.1-46.4,168.9-33.5,181.9-5c18.5,40.7-40.1,116.2-137.3,127.1c-37.1,4.1-56.5-10.2-61.4-15.5
	c-5.1-5.6-5.9-5.9-7.8-4.8c-3.1,1.7-1.1,6.7,0,9.6c2.9,7.6,14.9,21,35.1,27.6c17.9,5.8,61.3,9,114-11.3
	c58.9-22.8,104.9-86.1,91.4-139.2c-13.5-53.8-102.9-71.6-187.5-41.6c-50.3,17.9-104.8,46-144,82.7c-46.6,43.6-54,81.4-50.9,97.3
	c10.8,56.3,88.5,93,119.5,120.1c-1.6,0.9-3,1.7-4.2,2.3c-15.5,7.7-74.7,38.7-89.5,71.4c-16.8,37.1,2.7,63.7,15.5,67.3
	c39.9,11.1,80.9-8.8,102.9-41.7c22-32.8,19.3-75.5,9.2-95.1c-0.1-0.2-0.2-0.4-0.4-0.7c4-2.3,8.2-4.8,12.2-7.2
	c7.9-4.7,15.8-9,22.5-12.6c-3.8,10.4-6.6,22.8-7.9,40.7c-1.7,21,6.9,48.3,18.2,59c5,4.7,10.9,4.8,14.7,4.8
	c13.2,0,19.1-10.9,25.7-23.9c8-15.9,15.3-34.3,15.3-34.3s-9,49.8,15.5,49.8c8.9,0,18-11.6,22-17.5c0,0.1,0,0.1,0,0.1
	s0.2-0.3,0.7-1.1c0.9-1.5,1.5-2.3,1.5-2.3s0-0.1,0-0.2c3.6-6.3,11.6-20.4,23.6-44c15.4-30.4,30.3-68.4,30.3-68.4s1.3,9.3,5.9,24.7
	c2.7,9,8.3,19,12.7,28.6c-3.6,5-5.8,7.8-5.8,7.8s0,0,0.1,0.1c-2.9,3.8-6,7.9-9.5,12c-12.2,14.5-26.7,31.2-28.7,36
	c-2.3,5.7-1.8,9.8,2.7,13.2c3.2,2.5,9,2.8,15,2.5c10.9-0.8,18.7-3.5,22.5-5.1c5.9-2.1,12.8-5.4,19.3-10.2
	c12-8.8,19.2-21.5,18.5-38.1c-0.3-9.2-3.4-18.3-7-26.9c1.1-1.6,2.1-3.1,3.2-4.7c18.9-27.6,33.5-57.9,33.5-57.9s1.3,9.3,5.9,24.7
	c2.2,7.8,6.8,16.3,10.8,24.6c-17.8,14.4-28.7,31.2-32.6,42.1c-7,20.3-1.6,29.5,8.8,31.6c4.7,1,11.4-1.2,16.3-3.4
	c6.3-2,13.6-5.5,20.7-10.6c12-8.8,23.5-21.1,22.8-37.8c-0.3-7.6-2.3-15.1-5.1-22.3c15.1-6.3,34.5-9.7,59.3-6.8
	c53.2,6.3,63.7,39.4,61.7,53.4c-2,14-13.2,21.6-16.9,23.9c-3.7,2.3-4.9,3.1-4.6,4.8c0.4,2.5,2.2,2.3,5.4,1.9
	c4.4-0.8,27.9-11.3,28.9-37C613.2,465.8,581.9,430,526.6,430.3z M116.4,568.6c-17.7,19.2-42.2,26.5-52.8,20.3
	c-11.4-6.6-6.9-35,14.7-55.3c13.2-12.4,30.2-23.9,41.4-30.9c2.6-1.6,6.4-3.8,10.9-6.6c0.8-0.4,1.2-0.7,1.2-0.7l0,0
	c0.9-0.6,1.8-1.1,2.7-1.7C142.6,522.8,135,548.4,116.4,568.6z M244.9,481.2c-6.1,15-19,53.3-26.8,51.2c-6.7-1.8-10.8-30.8-1.3-59.5
	c4.8-14.4,15-31.6,20.9-38.3c9.6-10.7,20.2-14.3,22.8-9.9C263.7,430.3,248.7,471.9,244.9,481.2z M350.9,532c-2.6,1.3-5,2.2-6.1,1.6
	c-0.8-0.4,1.1-2.2,1.1-2.2s13.3-14.3,18.5-20.8c3-3.8,6.6-8.3,10.4-13.3c0,0.4,0,1,0,1.5C374.8,515.8,358.3,527.3,350.9,532z
	 M432.7,513.3c-1.9-1.3-1.6-5.8,4.8-19.8c2.5-5.5,8.3-14.6,18.2-23.5c1.1,3.6,1.9,7,1.8,10.3C457.4,501.9,442,510,432.7,513.3z"/>
</svg>
