<svg id="Layer_1" data-name="Layer 1" xmlns="http://www.w3.org/2000/svg" viewBox="0 0 256 128"><defs><style>.cls-1{fill:#595959;}</style></defs><title>i-love-expressjs</title><path class="cls-1" d="M0,28.17H38.3v3H3.51V54H36.22v3H3.51V82.1H38.69v3H0Z"/><path class="cls-1" d="M55.29,63.59l-15-19.47h4.23L57.37,61.27,70.31,44.13h3.9L59.37,63.59l16.2,21.55H71.43L57.37,65.92,43,85.15H39.18Z"/><path class="cls-1" d="M83.22,53.53h.24a16.31,16.31,0,0,1,1.6-3.35,14.21,14.21,0,0,1,3-3.4,15.82,15.82,0,0,1,4.43-2.59,16.14,16.14,0,0,1,5.94-1,18,18,0,0,1,8.18,1.75,16.33,16.33,0,0,1,5.74,4.71,20.33,20.33,0,0,1,3.4,6.86,29.78,29.78,0,0,1,1.12,8.22,31.29,31.29,0,0,1-1.12,8.62,19.21,19.21,0,0,1-3.4,6.75,15.7,15.7,0,0,1-5.77,4.43,19.33,19.33,0,0,1-8.2,1.6,18.37,18.37,0,0,1-9.12-2.24,13,13,0,0,1-5.83-7.26h-.15V99.83h-3V44.15h3v9.38ZM98.35,83.46a14.88,14.88,0,0,0,6.93-1.51,13.56,13.56,0,0,0,4.8-4.08,17.93,17.93,0,0,0,2.81-5.94,27.43,27.43,0,0,0,.92-7.21,27.11,27.11,0,0,0-.88-6.91,19.34,19.34,0,0,0-2.72-6.07,15.1,15.1,0,0,0-18.79-4.36,13.37,13.37,0,0,0-4.67,4.23,18,18,0,0,0-2.61,6,31.11,31.11,0,0,0-.79,7.06,33.66,33.66,0,0,0,.72,7.06,17.37,17.37,0,0,0,2.43,6,12.35,12.35,0,0,0,4.65,4.14A15.1,15.1,0,0,0,98.35,83.46Z"/><path class="cls-1" d="M126.94,53.22h.24a9.85,9.85,0,0,1,2-3.75,14.32,14.32,0,0,1,3.6-3,17.08,17.08,0,0,1,4.71-2,18.36,18.36,0,0,1,5.39-.59v3a14.29,14.29,0,0,0-5.46.48,13.39,13.39,0,0,0-5.88,3.51,25,25,0,0,0-2,2.32,11.88,11.88,0,0,0-1.4,2.48,15.88,15.88,0,0,0-.88,3,24.77,24.77,0,0,0-.39,4V85.17h-3v-41h3Z"/><path class="cls-1" d="M146.25,65v.48a24.37,24.37,0,0,0,1,6.86,17,17,0,0,0,2.85,5.74,13.37,13.37,0,0,0,4.71,3.9,14.34,14.34,0,0,0,6.6,1.45c4.1,0,7.37-1.07,9.76-3.22a16.92,16.92,0,0,0,5-9h3c-.9,4.78-2.85,8.46-5.88,11s-7,3.84-11.93,3.84a18,18,0,0,1-7.94-1.64A16.23,16.23,0,0,1,147.72,80a19,19,0,0,1-3.4-6.71A29.89,29.89,0,0,1,143.2,65a29.41,29.41,0,0,1,1.16-8.27,20.89,20.89,0,0,1,3.46-6.95A16.86,16.86,0,0,1,153.62,45a17.5,17.5,0,0,1,8.18-1.8,17.27,17.27,0,0,1,7.63,1.6A16.2,16.2,0,0,1,175,49.1a19.79,19.79,0,0,1,3.4,6.38,25.6,25.6,0,0,1,1.16,7.78c0,.26,0,.57,0,.92s0,.64,0,.83Zm30.17-2.63a24.73,24.73,0,0,0-1.12-6.34,15.28,15.28,0,0,0-2.85-5.26,14.49,14.49,0,0,0-4.56-3.64,13.5,13.5,0,0,0-6.12-1.36,14.28,14.28,0,0,0-6.49,1.4,14.45,14.45,0,0,0-4.71,3.66,16.68,16.68,0,0,0-3,5.31,24.19,24.19,0,0,0-1.27,6.23Z"/><path class="cls-1" d="M188,71.49a12.68,12.68,0,0,0,1.27,5.06,12,12,0,0,0,2.92,3.75,12.25,12.25,0,0,0,4.19,2.35,16.54,16.54,0,0,0,5.2.79,27.15,27.15,0,0,0,4.28-.35,15.11,15.11,0,0,0,4.23-1.32,8.7,8.7,0,0,0,3.22-2.67,7,7,0,0,0,1.27-4.34,6.47,6.47,0,0,0-2.08-5.2,14.71,14.71,0,0,0-5.22-2.72,53,53,0,0,0-6.77-1.56,33.7,33.7,0,0,1-6.77-1.8,13.57,13.57,0,0,1-5.22-3.4c-1.38-1.47-2.08-3.6-2.08-6.42a9,9,0,0,1,1.36-5.06,10,10,0,0,1,3.46-3.22A15.9,15.9,0,0,1,196,43.67a26.77,26.77,0,0,1,5.26-.53,23.82,23.82,0,0,1,6,.72,12.83,12.83,0,0,1,4.82,2.32,11.16,11.16,0,0,1,3.2,4.08,14.08,14.08,0,0,1,1.16,6h-3a11.26,11.26,0,0,0-.92-4.78,8.3,8.3,0,0,0-2.54-3.22,11,11,0,0,0-3.88-1.84,18.66,18.66,0,0,0-4.78-.59,22.74,22.74,0,0,0-4.19.39,12.18,12.18,0,0,0-3.79,1.36A8.58,8.58,0,0,0,190.54,50a7,7,0,0,0,.13,7.65,8.47,8.47,0,0,0,3.16,2.43,21.43,21.43,0,0,0,4.38,1.47l4.91,1.12c2,.37,3.92.81,5.7,1.32a16,16,0,0,1,4.63,2.08,9.52,9.52,0,0,1,3.07,3.4,11,11,0,0,1,1.12,5.26,9.33,9.33,0,0,1-1.51,5.5,11.42,11.42,0,0,1-3.84,3.46,16.37,16.37,0,0,1-5.15,1.84,30.23,30.23,0,0,1-5.55.53,22,22,0,0,1-6.51-.92,14.56,14.56,0,0,1-5.22-2.78,13.4,13.4,0,0,1-3.51-4.58A15.57,15.57,0,0,1,185,71.51h3Z"/><path class="cls-1" d="M226.36,71.49a12.68,12.68,0,0,0,1.27,5.06,12,12,0,0,0,2.92,3.75,12.25,12.25,0,0,0,4.19,2.35,16.54,16.54,0,0,0,5.2.79,27.15,27.15,0,0,0,4.28-.35,15.11,15.11,0,0,0,4.23-1.32,8.7,8.7,0,0,0,3.22-2.67,7,7,0,0,0,1.27-4.34,6.47,6.47,0,0,0-2.08-5.2,14.71,14.71,0,0,0-5.22-2.72,53,53,0,0,0-6.77-1.56,33.7,33.7,0,0,1-6.77-1.8,13.57,13.57,0,0,1-5.22-3.4c-1.38-1.47-2.08-3.6-2.08-6.42a9,9,0,0,1,1.36-5.06,10,10,0,0,1,3.46-3.22,15.9,15.9,0,0,1,4.76-1.71,26.77,26.77,0,0,1,5.26-.53,23.82,23.82,0,0,1,6,.72,12.83,12.83,0,0,1,4.82,2.32,11.16,11.16,0,0,1,3.2,4.08,14.08,14.08,0,0,1,1.16,6h-3a11.26,11.26,0,0,0-.92-4.78,8.3,8.3,0,0,0-2.54-3.22,11,11,0,0,0-3.88-1.84,18.66,18.66,0,0,0-4.78-.59,22.74,22.74,0,0,0-4.19.39,12.18,12.18,0,0,0-3.79,1.36A8.58,8.58,0,0,0,228.9,50,7,7,0,0,0,229,57.7a8.47,8.47,0,0,0,3.16,2.43,21.43,21.43,0,0,0,4.38,1.47l4.91,1.12c2,.37,3.92.81,5.7,1.32a16,16,0,0,1,4.63,2.08,9.52,9.52,0,0,1,3.07,3.4A11,11,0,0,1,256,74.78a9.33,9.33,0,0,1-1.51,5.5,11.42,11.42,0,0,1-3.84,3.46,16.37,16.37,0,0,1-5.15,1.84,30.23,30.23,0,0,1-5.55.53,22,22,0,0,1-6.51-.92,14.56,14.56,0,0,1-5.22-2.78,13.4,13.4,0,0,1-3.51-4.58,15.57,15.57,0,0,1-1.36-6.31h3Z"/></svg>