<?xml version="1.0" encoding="utf-8"?>
<!-- Generator: Adobe Illustrator 18.0.0, SVG Export Plug-In . SVG Version: 6.00 Build 0)  -->
<!DOCTYPE svg PUBLIC "-//W3C//DTD SVG 1.1//EN" "http://www.w3.org/Graphics/SVG/1.1/DTD/svg11.dtd">
<svg version="1.1" id="Layer_1" xmlns="http://www.w3.org/2000/svg" xmlns:xlink="http://www.w3.org/1999/xlink" x="0px" y="0px"
	 width="482.9px" height="439.3px" viewBox="0 0 482.9 439.3" enable-background="new 0 0 482.9 439.3" xml:space="preserve">
<path fill="#7A7A7A" d="M420,45.4c5.5,0,10.8,0.9,15.7,2.4c4.9,1.6,9.3,3.8,13.1,6.7c3.8,2.8,7,6.2,9.3,9.9c2.3,3.8,3.7,7.9,4,12.2
	l20.6,308.5c0.3,5.2-0.6,10.2-2.5,14.8c-1.9,4.6-4.9,8.7-8.7,12.1c-3.8,3.5-8.4,6.3-13.7,8.2c-5.2,1.9-11,3-17.2,3H42.1
	c-6.2,0-12-1.1-17.2-3s-9.8-4.8-13.7-8.2c-3.8-3.5-6.8-7.6-8.7-12.1s-2.8-9.5-2.5-14.8L20.7,76.7c0.3-4.4,1.7-8.5,4-12.2
	c2.3-3.7,5.4-7.1,9.3-9.9c3.8-2.8,8.3-5.1,13.1-6.7c4.9-1.6,10.2-2.4,15.7-2.4L420,45.4L420,45.4z"/>
<path fill="#727272" d="M477.9,404.6c-2.3,3.7-5.4,7.1-9.1,9.8c-3.7,2.8-8,5-12.7,6.6c-4.7,1.5-9.9,2.4-15.3,2.4H42.1
	c-5.4,0-10.6-0.8-15.3-2.4c-4.7-1.5-9-3.8-12.7-6.6c-3.7-2.8-6.8-6.1-9.1-9.8c-2.3-3.7-3.9-7.8-4.6-12.2l2.5,16.2
	c0.7,4.4,2.3,8.5,4.6,12.2s5.4,7,9,9.8c3.7,2.8,7.9,5,12.6,6.5s9.8,2.4,15.2,2.4h394.3c5.4,0,10.5-0.8,15.2-2.4
	c4.7-1.5,8.9-3.7,12.6-6.5c3.6-2.8,6.7-6.1,9-9.8c2.3-3.7,3.9-7.8,4.6-12.2l2.5-16.2C481.8,396.8,480.2,400.9,477.9,404.6z"/>
<path fill="#323233" d="M402.2,56.8c5.5,0,10.8,0.9,15.6,2.4c4.8,1.6,9.3,3.8,13,6.6c3.8,2.8,6.9,6.1,9.1,9.8
	c2.3,3.7,3.6,7.8,3.9,12.1L461,360c0.3,5.1-0.6,9.9-2.5,14.4c-1.9,4.4-4.9,8.4-8.7,11.8c-3.8,3.4-8.3,6.1-13.5,8s-10.9,2.9-17,2.9
	H65.2c-6.1,0-11.8-1-17-2.9s-9.7-4.6-13.5-8s-6.7-7.4-8.7-11.8c-1.9-4.4-2.9-9.3-2.5-14.4L40.7,87.6c0.3-4.3,1.6-8.4,3.9-12.1
	c2.2-3.7,5.4-7,9.1-9.8c3.8-2.8,8.2-5,13-6.6c4.8-1.5,10.1-2.4,15.6-2.4h319.9V56.8z"/>
<path fill="#4C4C4C" d="M408.6,0c4.9,0,9.6,0.8,13.9,2.2s8.3,3.4,11.6,5.9c3.4,2.5,6.2,5.5,8.2,8.8s3.2,7,3.5,10.8l17.6,284.5
	c0.3,4.6-0.5,8.9-2.3,12.9c-1.7,4-4.4,7.6-7.7,10.6c-3.4,3-7.5,5.5-12,7.2c-4.6,1.7-9.7,2.6-15.1,2.6H58.4c-5.4,0-10.5-0.9-15.1-2.6
	s-8.7-4.2-12-7.2c-3.4-3-6-6.6-7.7-10.6s-2.6-8.3-2.3-12.9L38.8,27.7c0.2-3.9,1.5-7.5,3.5-10.8s4.8-6.3,8.2-8.8s7.3-4.5,11.6-5.9
	S71.1,0,76,0H408.6z"/>
<path fill="#3F3F3F" d="M459.2,328.7c-2.1,3.3-4.8,6.3-8.1,8.8c-3.3,2.5-7.1,4.5-11.3,5.9c-4.2,1.4-8.8,2.1-13.7,2.1H58.4
	c-4.8,0-9.4-0.8-13.7-2.1c-4.2-1.4-8-3.4-11.3-5.9s-6-5.4-8.1-8.8c-1.3-2.1-2.3-4.3-3-6.6c-0.4-1.4-0.8-2.8-1-4.3l0,0l0,0l6.8,48.2
	c0.5,3.8,1.9,7.4,3.9,10.7c2,3.3,4.6,6.2,7.8,8.6s6.9,4.4,11,5.7c4.1,1.3,8.5,2.1,13.2,2.1h356.4c4.7,0,9.2-0.7,13.2-2.1
	c4.1-1.3,7.8-3.3,11-5.7c3.2-2.4,5.8-5.4,7.8-8.6c1.5-2.4,2.6-5.1,3.3-7.9c0.2-0.9,0.4-1.9,0.6-2.8l6.8-48.2
	C462.6,321.7,461.2,325.4,459.2,328.7z"/>
<path fill="#3F3F3F" d="M239.1,58.2c11.3,0,22.1,1,32.7,3.4c10.3,2.3,19.8,5.9,27.9,10.9s14.9,11.4,19.6,19.4c4.8,8,7.6,17.6,7.7,29
	h-46.8c-0.4-5.9-1.9-10.8-4.3-14.7c-2.4-3.9-5.6-6.9-9.4-9.1c-3.9-2.2-8.4-3.7-13.4-4.6s-10.5-1.3-16.2-1.3c-3.8,0-7.8,0.4-11.6,1.2
	c-3.8,0.8-7.5,2-10.7,3.8c-3.2,1.7-5.9,4-7.8,6.9c-1.9,2.9-3.1,6.3-3.1,10.4c0,3.8,0.6,6.8,2.4,9.3c1.8,2.5,4.8,4.6,9.6,6.6
	c4.7,2,11.2,3.9,20,6.1c8.7,2.2,19.8,4.7,33.6,8c4,0.9,10.1,2.2,17,4.2c6.9,2.1,14.6,5,21.9,9.2s14.1,9.8,19.1,17.1
	c5,7.4,8.3,16.6,8.5,28.1c0.2,9.4-1.7,18.2-5.5,26.1c-3.9,8-9.7,15.1-17.5,21c-7.8,5.9-17.6,10.7-29.2,14
	c-11.7,3.3-25.2,5.1-40.5,5.1c-12.5,0-24.8-1.4-36.2-4.4c-11.4-2.9-21.8-7.4-30.7-13.4c-8.8-6-16-13.6-20.9-22.9
	c-4.9-9.2-7.5-20.1-7.1-32.6h47.4c-0.1,6.8,1.3,12.5,3.9,17.3c2.5,4.8,6.2,8.7,10.8,11.8c4.5,3,9.9,5.2,15.8,6.7
	c5.9,1.4,12.3,2.1,18.9,2.1c4.3,0,9.2-0.3,14.1-1.1c4.9-0.8,9.8-2,14.2-3.9c4.4-1.9,8.2-4.4,10.9-7.8c2.7-3.4,4.3-7.6,4.3-12.8
	c0-5.5-2.2-9.9-5.8-13.4c-3.7-3.6-8.9-6.3-15.1-8.6s-13.4-4.2-21.2-6c-7.7-1.8-15.9-3.5-24.1-5.5c-8.2-2-16.5-4.2-24.2-7
	s-14.9-6.1-21.1-10.4c-6.1-4.3-11.2-9.5-14.7-15.9s-5.4-14.1-5.3-23.4c0.2-10.1,3-18.8,7.6-26.2c4.7-7.4,11.3-13.5,19-18.4
	c7.8-4.8,16.7-8.5,26.2-10.8C219.3,59.4,229.3,58.2,239.1,58.2z"/>
<path fill="#727272" d="M239.1,67.7c11.3,0,22.4,1.1,32.7,3.4c10.3,2.3,19.8,5.9,27.9,10.9s14.9,11.4,19.6,19.4
	c4.8,8,7.6,17.6,7.7,29h-46.8c-0.4-5.9-1.9-10.8-4.3-14.7c-2.4-3.9-5.6-6.9-9.4-9.1c-3.9-2.2-8.4-3.7-13.4-4.6s-10.5-1.3-16.2-1.3
	c-3.8,0-7.8,0.4-11.6,1.2c-3.8,0.8-7.5,2-10.7,3.8c-3.2,1.7-5.9,4-7.8,6.9c-1.9,2.9-3.1,6.3-3.1,10.4c0,3.8,0.6,6.8,2.4,9.3
	c1.8,2.5,4.8,4.6,9.6,6.6c4.7,2,11.2,3.9,20,6.1c8.7,2.2,19.8,4.7,33.6,8c4,0.9,10.1,2.2,17,4.2c6.9,2.1,14.6,5,21.9,9.2
	s14.1,9.8,19.1,17.1c5,7.4,8.3,16.6,8.5,28.1c0.2,9.4-1.7,18.2-5.5,26.1c-3.9,8-9.7,15.1-17.5,21c-7.8,5.9-17.6,10.7-29.2,14
	c-11.7,3.3-25.2,5.1-40.5,5.1c-12.5,0-24.8-1.4-36.2-4.4c-11.4-2.9-21.8-7.4-30.7-13.4c-8.8-6-16-13.6-20.9-22.9
	c-4.9-9.2-7.5-20.1-7.1-32.6h47.4c-0.1,6.8,1.3,12.5,3.9,17.3c2.5,4.8,6.2,8.7,10.8,11.8c4.5,3,9.9,5.2,15.8,6.7
	c5.9,1.4,12.3,2.1,18.9,2.1c4.3,0,9.2-0.3,14.1-1.1c4.9-0.8,9.8-2,14.2-3.9c4.4-1.9,8.2-4.4,10.9-7.8c2.7-3.4,4.3-7.6,4.3-12.8
	c0-5.5-2.2-9.9-5.8-13.4c-3.7-3.6-8.9-6.3-15.1-8.6s-13.4-4.2-21.2-6c-7.7-1.8-15.9-3.5-24.1-5.5c-8.2-2-16.5-4.2-24.2-7
	s-14.9-6.1-21.1-10.4c-6.1-4.3-11.2-9.5-14.7-15.9s-5.4-14.1-5.3-23.4c0.2-10.1,3-18.8,7.6-26.2c4.7-7.4,11.3-13.5,19-18.4
	c7.8-4.8,16.7-8.5,26.2-10.8C219.3,68.9,229.3,67.7,239.1,67.7z"/>
</svg>
