<?xml version="1.0" encoding="utf-8"?>
<!-- Generator: Adobe Illustrator 21.0.2, SVG Export Plug-In . SVG Version: 6.00 Build 0)  -->
<svg version="1.1" id="Layer_1" xmlns="http://www.w3.org/2000/svg" xmlns:xlink="http://www.w3.org/1999/xlink" x="0px" y="0px"
	 viewBox="0 0 1167.6 326.8" style="enable-background:new 0 0 1167.6 326.8;" xml:space="preserve">
<style type="text/css">
	.st0{fill:#595959;}
</style>
<title>n</title>
<g>
	<path class="st0" d="M0,0h174.7v13.8H16v104.1h149.2v13.8H16V246h160.5v13.8H0V0z"/>
	<path class="st0" d="M252.2,161.6l-68.4-88.8h19.3l58.6,78.2l59-78.2h17.8l-67.7,88.8l73.9,98.3h-18.9l-64.1-87.7l-65.5,87.7h-17.5
		L252.2,161.6z"/>
	<path class="st0" d="M379.6,115.7h1.1c1.5-4.6,3.9-9.7,7.3-15.3c3.4-5.6,7.9-10.7,13.5-15.5c5.6-4.7,12.3-8.7,20.2-11.8
		c7.9-3.1,16.9-4.7,27.1-4.7c14.3,0,26.8,2.7,37.3,8c10.6,5.3,19.3,12.5,26.2,21.5c6.9,9,12.1,19.4,15.5,31.3
		c3.4,11.9,5.1,24.4,5.1,37.5c0,14.3-1.7,27.4-5.1,39.3c-3.4,11.9-8.6,22.1-15.5,30.8c-6.9,8.6-15.7,15.3-26.3,20.2
		c-10.6,4.9-23,7.3-37.4,7.3c-15.6,0-29.4-3.4-41.6-10.2c-12.2-6.8-21-17.8-26.6-33.1h-0.7l0,105.9h-13.5v-254h13.5V115.7z
		 M448.6,252.2c12.2,0,22.7-2.3,31.6-6.9c8.9-4.6,16.2-10.8,21.9-18.6c5.7-7.8,10-16.8,12.8-27.1c2.8-10.3,4.2-21.3,4.2-32.9
		c0-10.7-1.3-21.2-4-31.5c-2.7-10.3-6.8-19.5-12.4-27.7c-5.6-8.1-12.8-14.7-21.7-19.7c-8.9-5-19.6-7.5-32.3-7.5
		c-12.4,0-23,2.4-31.7,7.3c-8.8,4.9-15.9,11.3-21.3,19.3c-5.5,8-9.4,17.2-11.9,27.5c-2.4,10.3-3.6,21.1-3.6,32.2
		c0,11.2,1.1,21.9,3.3,32.2c2.2,10.3,5.9,19.4,11.1,27.3c5.2,7.9,12.3,14.2,21.2,18.9S435.4,252.2,448.6,252.2z"/>
	<path class="st0" d="M579,114.3h1.1c1.7-6.1,4.8-11.8,9.3-17.1c4.5-5.3,9.9-9.9,16.4-13.8c6.4-3.9,13.6-6.9,21.5-8.9
		c7.9-2.1,16.1-3,24.6-2.7v13.8c-7.3-1-15.6-0.2-24.9,2.2c-9.3,2.4-18.3,7.8-26.8,16c-3.4,3.6-6.4,7.2-8.9,10.6
		c-2.5,3.4-4.7,7.2-6.4,11.3c-1.7,4.1-3,8.7-4,13.8c-1,5.1-1.6,11.2-1.8,18.2v102.3h-13.8V72.8H579V114.3z"/>
	<path class="st0" d="M667.1,168.1v2.2c0,10.9,1.5,21.4,4.4,31.3c2.9,10,7.2,18.7,13,26.2c5.7,7.5,12.9,13.5,21.5,17.8
		c8.6,4.4,18.7,6.6,30.1,6.6c18.7,0,33.6-4.9,44.5-14.7c10.9-9.8,18.5-23.5,22.6-40.9h13.8c-4.1,21.8-13,38.6-26.8,50.2
		c-13.7,11.6-31.8,17.5-54.4,17.5c-13.8,0-25.9-2.5-36.2-7.5c-10.3-5-18.9-11.8-25.8-20.4c-6.9-8.6-12.1-18.8-15.5-30.6
		c-3.4-11.8-5.1-24.4-5.1-38c0-13.1,1.8-25.7,5.3-37.7c3.5-12,8.8-22.6,15.8-31.7c7-9.1,15.8-16.4,26.4-21.8
		c10.6-5.5,23-8.2,37.3-8.2c13.1,0,24.7,2.4,34.8,7.3c10.1,4.9,18.5,11.5,25.3,19.8c6.8,8.4,11.9,18.1,15.5,29.1
		c3.5,11,5.3,22.9,5.3,35.5c0,1.2-0.1,2.6-0.2,4.2c-0.1,1.6-0.2,2.9-0.2,3.8H667.1z M804.7,156.1c-0.5-10.2-2.2-19.8-5.1-28.9
		c-2.9-9.1-7.2-17.1-13-24c-5.7-6.9-12.7-12.4-20.8-16.6c-8.2-4.1-17.5-6.2-27.9-6.2c-11.2,0-21,2.1-29.6,6.4
		c-8.5,4.2-15.7,9.8-21.5,16.7c-5.8,6.9-10.3,15-13.5,24.2c-3.2,9.2-5.1,18.7-5.8,28.4H804.7z"/>
	<path class="st0" d="M857.5,197.6c0.5,8.7,2.4,16.4,5.8,23.1c3.4,6.7,7.8,12.4,13.3,17.1c5.5,4.7,11.8,8.3,19.1,10.7
		c7.3,2.4,15.2,3.6,23.7,3.6c6.1,0,12.6-0.5,19.5-1.6c6.9-1.1,13.3-3.1,19.3-6c5.9-2.9,10.9-7,14.7-12.2c3.9-5.2,5.8-11.8,5.8-19.8
		c0-10.4-3.2-18.3-9.5-23.7c-6.3-5.3-14.3-9.5-23.8-12.4c-9.6-2.9-19.9-5.3-30.9-7.1c-11-1.8-21.4-4.5-30.9-8.2
		c-9.6-3.6-17.5-8.8-23.8-15.5c-6.3-6.7-9.5-16.4-9.5-29.3c0-9.2,2.1-16.9,6.2-23.1c4.1-6.2,9.4-11.1,15.8-14.7
		c6.4-3.6,13.6-6.2,21.7-7.8c8-1.6,16-2.4,24-2.4c9.7,0,18.8,1.1,27.3,3.3c8.5,2.2,15.8,5.7,22,10.6c6.2,4.9,11,11,14.6,18.6
		c3.5,7.5,5.3,16.6,5.3,27.3h-13.8c0-8.5-1.4-15.8-4.2-21.8c-2.8-6.1-6.7-11-11.6-14.7c-5-3.8-10.9-6.6-17.7-8.4
		c-6.8-1.8-14.1-2.7-21.8-2.7c-6.3,0-12.7,0.6-19.1,1.8c-6.4,1.2-12.2,3.3-17.3,6.2c-5.1,2.9-9.3,6.7-12.6,11.3
		c-3.3,4.6-4.9,10.2-4.9,16.7c0,7.5,1.8,13.6,5.5,18.2c3.6,4.6,8.4,8.3,14.4,11.1c5.9,2.8,12.6,5,20,6.7c7.4,1.7,14.9,3.4,22.4,5.1
		c9.2,1.7,17.9,3.7,26,6c8.1,2.3,15.2,5.5,21.1,9.5c5.9,4,10.6,9.2,14,15.5c3.4,6.3,5.1,14.3,5.1,24c0,10.2-2.3,18.6-6.9,25.1
		c-4.6,6.6-10.4,11.8-17.5,15.8c-7,4-14.9,6.8-23.5,8.4c-8.6,1.6-17,2.4-25.3,2.4c-10.7,0-20.6-1.4-29.7-4.2
		c-9.1-2.8-17.1-7-23.8-12.7c-6.8-5.7-12.1-12.7-16-20.9c-3.9-8.2-5.9-17.8-6.2-28.8H857.5z"/>
	<path class="st0" d="M1032.5,197.6c0.5,8.7,2.4,16.4,5.8,23.1c3.4,6.7,7.8,12.4,13.3,17.1c5.5,4.7,11.8,8.3,19.1,10.7
		c7.3,2.4,15.2,3.6,23.7,3.6c6.1,0,12.6-0.5,19.5-1.6c6.9-1.1,13.3-3.1,19.3-6c5.9-2.9,10.9-7,14.7-12.2c3.9-5.2,5.8-11.8,5.8-19.8
		c0-10.4-3.2-18.3-9.5-23.7c-6.3-5.3-14.3-9.5-23.8-12.4c-9.6-2.9-19.9-5.3-30.9-7.1c-11-1.8-21.4-4.5-30.9-8.2
		c-9.6-3.6-17.5-8.8-23.8-15.5c-6.3-6.7-9.5-16.4-9.5-29.3c0-9.2,2.1-16.9,6.2-23.1c4.1-6.2,9.4-11.1,15.8-14.7
		c6.4-3.6,13.6-6.2,21.7-7.8c8-1.6,16-2.4,24-2.4c9.7,0,18.8,1.1,27.3,3.3c8.5,2.2,15.8,5.7,22,10.6c6.2,4.9,11,11,14.6,18.6
		c3.5,7.5,5.3,16.6,5.3,27.3h-13.8c0-8.5-1.4-15.8-4.2-21.8c-2.8-6.1-6.7-11-11.6-14.7c-5-3.8-10.9-6.6-17.7-8.4
		c-6.8-1.8-14.1-2.7-21.8-2.7c-6.3,0-12.7,0.6-19.1,1.8c-6.4,1.2-12.2,3.3-17.3,6.2c-5.1,2.9-9.3,6.7-12.6,11.3
		c-3.3,4.6-4.9,10.2-4.9,16.7c0,7.5,1.8,13.6,5.5,18.2c3.6,4.6,8.4,8.3,14.4,11.1c5.9,2.8,12.6,5,20,6.7c7.4,1.7,14.9,3.4,22.4,5.1
		c9.2,1.7,17.9,3.7,26,6c8.1,2.3,15.2,5.5,21.1,9.5c5.9,4,10.6,9.2,14,15.5c3.4,6.3,5.1,14.3,5.1,24c0,10.2-2.3,18.6-6.9,25.1
		c-4.6,6.6-10.4,11.8-17.5,15.8c-7,4-14.9,6.8-23.5,8.4c-8.6,1.6-17,2.4-25.3,2.4c-10.7,0-20.6-1.4-29.7-4.2
		c-9.1-2.8-17.1-7-23.8-12.7c-6.8-5.7-12.1-12.7-16-20.9c-3.9-8.2-5.9-17.8-6.2-28.8H1032.5z"/>
</g>
</svg>
