<svg id="Layer_1" data-name="Layer 1" xmlns="http://www.w3.org/2000/svg" xmlns:xlink="http://www.w3.org/1999/xlink" viewBox="0 0 256 128"><defs><style>.cls-1{fill:none;}.cls-2{fill:#595959;}.cls-3{fill:url(#linear-gradient);}.cls-4{clip-path:url(#clip-path);}.cls-5{fill:#333;opacity:0.66;isolation:isolate;}.cls-6{fill:url(#linear-gradient-2);}</style><linearGradient id="linear-gradient" x1="78.27" y1="-368.72" x2="122.78" y2="-368.72" gradientTransform="matrix(1, 0, 0, -1, 0, -314)" gradientUnits="userSpaceOnUse"><stop offset="0.01" stop-color="#b3b3b3"/><stop offset="0.19" stop-color="#999"/><stop offset="0.54" stop-color="gray"/><stop offset="0.82" stop-color="#666"/><stop offset="1" stop-color="#4d4d4d"/></linearGradient><clipPath id="clip-path"><path class="cls-1" d="M101.71,29.72a2.44,2.44,0,0,0-2.41,0L79.45,41.2a2.36,2.36,0,0,0-1.18,2.08V66.15a2.46,2.46,0,0,0,1.18,2.08L99.3,79.71a2.44,2.44,0,0,0,2.41,0l19.84-11.48a2.36,2.36,0,0,0,1.18-2.08V43.23a2.46,2.46,0,0,0-1.18-2.08Z"/></clipPath><linearGradient id="linear-gradient-2" x1="77.96" y1="-368.64" x2="123.87" y2="-368.64" gradientTransform="matrix(1, 0, 0, -1, 0, -314)" gradientUnits="userSpaceOnUse"><stop offset="0" stop-color="#4d4d4d"/><stop offset="0.18" stop-color="#666"/><stop offset="0.46" stop-color="gray"/><stop offset="0.81" stop-color="#999"/><stop offset="0.99" stop-color="#b3b3b3"/></linearGradient></defs><title>i-love-nodejs</title><path class="cls-2" d="M126.8,128a4.14,4.14,0,0,1-2-.52l-6.28-3.73c-.94-.52-.47-.71-.19-.8a11.45,11.45,0,0,0,2.83-1.28.43.43,0,0,1,.47,0l4.82,2.88a.6.6,0,0,0,.57,0l18.85-10.91a.54.54,0,0,0,.28-.52V91.38a.54.54,0,0,0-.28-.52L127,80a.6.6,0,0,0-.57,0L107.61,90.86a.59.59,0,0,0-.28.52v21.78a.59.59,0,0,0,.28.52l5.15,3c2.79,1.42,4.54-.24,4.54-1.89V93.27a.57.57,0,0,1,.57-.57h2.41a.57.57,0,0,1,.57.57v21.5c0,3.73-2,5.91-5.58,5.91a8.11,8.11,0,0,1-4.35-1.18l-5-2.83a4,4,0,0,1-2-3.45V91.43A4,4,0,0,1,106,88l18.85-10.91a4.22,4.22,0,0,1,4,0L147.63,88a4,4,0,0,1,2,3.45v21.78a4,4,0,0,1-2,3.45l-18.85,10.91A5.31,5.31,0,0,1,126.8,128Z"/><path class="cls-2" d="M132.65,113c-8.27,0-10-3.78-10-7a.57.57,0,0,1,.57-.57h2.46a.49.49,0,0,1,.52.47c.38,2.5,1.46,3.73,6.47,3.73,4,0,5.67-.9,5.67-3,0-1.23-.47-2.13-6.66-2.74-5.15-.52-8.36-1.65-8.36-5.76,0-3.83,3.21-6.1,8.6-6.1,6,0,9,2.08,9.4,6.61a.76.76,0,0,1-.14.43.58.58,0,0,1-.38.19h-2.5a.55.55,0,0,1-.52-.43c-.57-2.6-2-3.45-5.91-3.45-4.35,0-4.87,1.51-4.87,2.65,0,1.37.61,1.8,6.47,2.55s8.55,1.84,8.55,5.91S138.61,113,132.65,113Z"/><path class="cls-2" d="M159.87,90.15a3.64,3.64,0,1,1-3.64-3.64A3.67,3.67,0,0,1,159.87,90.15Zm-6.71,0a3.06,3.06,0,0,0,3,3.07,3.1,3.1,0,0,0,3.07-3.07,3,3,0,0,0-6.1,0Zm1.7-2h1.42c.47,0,1.42,0,1.42,1.09a.92.92,0,0,1-.76,1c.57,0,.61.43.66.94a5.69,5.69,0,0,0,.19,1.09h-.85c0-.19-.14-1.23-.14-1.28,0-.24-.14-.33-.43-.33h-.71v1.65h-.8Zm.76,1.8h.61a.55.55,0,0,0,.61-.57c0-.57-.38-.57-.61-.57h-.66v1.13Z"/><path class="cls-2" d="M68.35,42.81a2.4,2.4,0,0,0-1.23-2.08l-20-11.58A2.91,2.91,0,0,0,46,28.82h-.19a2.25,2.25,0,0,0-1.09.33l-20,11.53a2.42,2.42,0,0,0-1.23,2.13l0,31a1.17,1.17,0,0,0,.61,1,1.07,1.07,0,0,0,1.18,0L37.26,68A2.4,2.4,0,0,0,38.49,66V51.46a2.4,2.4,0,0,1,1.23-2.08l5.06-2.93A2.29,2.29,0,0,1,46,46.12a2,2,0,0,1,1.18.33l5.06,2.93a2.4,2.4,0,0,1,1.23,2.08V66A2.4,2.4,0,0,0,54.69,68l11.81,6.8a1.15,1.15,0,0,0,1.23,0,1.17,1.17,0,0,0,.61-1Z"/><path class="cls-2" d="M164.64.14a1.3,1.3,0,0,0-1.18,0,1.23,1.23,0,0,0-.61,1V31.89a.85.85,0,0,1-1.28.76l-5-2.88a2.44,2.44,0,0,0-2.41,0l-20,11.58a2.4,2.4,0,0,0-1.23,2.08V66.53a2.4,2.4,0,0,0,1.23,2.08l20,11.58a2.44,2.44,0,0,0,2.41,0l20-11.58a2.4,2.4,0,0,0,1.23-2.08V8.93A2.42,2.42,0,0,0,176.6,6.8ZM162.8,58.92a.54.54,0,0,1-.28.52l-6.85,4a.7.7,0,0,1-.61,0l-6.85-4a.59.59,0,0,1-.28-.52V51a.54.54,0,0,1,.28-.52l6.85-4a.7.7,0,0,1,.61,0l6.85,4a.59.59,0,0,1,.28.52Z"/><path class="cls-2" d="M231.31,50.79a2.36,2.36,0,0,0,1.18-2.08V43.09A2.46,2.46,0,0,0,231.31,41L211.42,29.48a2.44,2.44,0,0,0-2.41,0L189,41.06a2.4,2.4,0,0,0-1.23,2.08V66.24A2.4,2.4,0,0,0,189,68.32l19.89,11.34a2.35,2.35,0,0,0,2.36,0l12-6.71a1.19,1.19,0,0,0,0-2.08L203.15,59.3a1.23,1.23,0,0,1-.61-1V51a1.17,1.17,0,0,1,.61-1l6.28-3.59a1.15,1.15,0,0,1,1.23,0L216.95,50a1.23,1.23,0,0,1,.61,1V56.7a1.17,1.17,0,0,0,.61,1,1.15,1.15,0,0,0,1.23,0Z"/><path class="cls-2" d="M209.91,49.71a.43.43,0,0,1,.47,0l3.83,2.22a.5.5,0,0,1,.24.43v4.44a.5.5,0,0,1-.24.43l-3.83,2.22a.43.43,0,0,1-.47,0l-3.83-2.22a.5.5,0,0,1-.24-.43V52.35a.5.5,0,0,1,.24-.43Z"/><path id="_Path_" data-name="&lt;Path&gt;" class="cls-3" d="M99.3,29.72a2.44,2.44,0,0,1,2.41,0L121.55,41.2a2.36,2.36,0,0,1,1.18,2.08V66.15a2.46,2.46,0,0,1-1.18,2.08L101.71,79.71a2.44,2.44,0,0,1-2.41,0L79.45,68.23a2.36,2.36,0,0,1-1.18-2.08V43.23a2.46,2.46,0,0,1,1.18-2.08Z"/><g class="cls-4"><path class="cls-1" d="M99.3,29.72,79.4,41.2a2.4,2.4,0,0,0-1.23,2.08V66.15a2.23,2.23,0,0,0,.57,1.51l22.35-38.23A2.41,2.41,0,0,0,99.3,29.72Z"/><path class="cls-1" d="M101.19,79.9a2,2,0,0,0,.47-.19l19.8-11.48a2.28,2.28,0,0,0,1.09-2.08V43.23a2.58,2.58,0,0,0-.52-1.56Z"/><path class="cls-5" d="M121.46,41.15,101.71,29.67a3.28,3.28,0,0,0-.61-.24L78.74,67.66a2.49,2.49,0,0,0,.66.57L99.3,79.71a2.24,2.24,0,0,0,1.89.19l20.88-38.23A1.71,1.71,0,0,0,121.46,41.15Z"/></g><g class="cls-4"><path class="cls-1" d="M79.64,41l-.24.14a2.4,2.4,0,0,0-1.23,2.08V66.15a2.4,2.4,0,0,0,1.23,2.08L99.3,79.71a2.25,2.25,0,0,0,1.75.24Z"/><path class="cls-1" d="M122.59,43.23a2.32,2.32,0,0,0-1.13-2.08L101.71,29.67a2.89,2.89,0,0,0-.57-.24l21.45,36.62V43.23Z"/><path class="cls-6" d="M101.66,79.71l19.8-11.48a2.28,2.28,0,0,0,1.09-2.08v-.09L101.09,29.44a2.3,2.3,0,0,0-1.84.24L79.59,41l21.36,38.93A1.57,1.57,0,0,0,101.66,79.71Z"/></g></svg>